<svg version="1.1" xmlns="http://www.w3.org/2000/svg" width="1024" height="1024">
<path d="M0 0 C337.92 0 675.84 0 1024 0 C1024 337.92 1024 675.84 1024 1024 C686.08 1024 348.16 1024 0 1024 C0 686.08 0 348.16 0 0 Z " fill="#FEFEFC" transform="translate(0,0)"/>
<path d="M0 0 C4.156 3.505 8.094 7.221 12 11 C13.272 12.212 13.272 12.212 14.57 13.449 C25.191 23.772 25.191 23.772 26.828 30.305 C28.134 34.421 30.152 37.197 32.812 40.5 C50.338 63.322 64.707 90.615 62 120 C61.3 123.811 60.393 127.386 59 131 C63.83 126.892 64.624 120.285 65.316 114.238 C67.14 81.786 51.687 51.464 31.387 26.789 C29.98 24.974 28.898 23.146 27.812 21.125 C26.063 18.109 24.755 16.968 22 15 C22 14.01 22 13.02 22 12 C38.562 13.336 53.35 26.991 63.82 39.168 C80.591 60.957 88.194 84.095 88.438 111.438 C88.447 112.498 88.447 112.498 88.457 113.58 C88.511 126.25 87.2 138.2 80 149 C79.848 151.309 79.778 153.624 79.75 155.938 C79.417 165.305 76.714 173.73 73.789 182.572 C72.687 185.963 71.674 189.378 70.662 192.797 C69.834 195.552 68.931 198.278 68 201 C68.758 201.536 69.516 202.072 70.297 202.625 C73.273 205.24 74.559 207.441 76.25 211 C76.75 212.031 77.25 213.062 77.766 214.125 C84.157 229.012 81.358 254.023 76 269 C75.753 269.713 75.507 270.426 75.252 271.16 C70.642 284.179 64.175 297.794 51.312 304.375 C49 305 49 305 45 305 C44.777 302.676 44.777 302.676 45 300 C46.504 298.48 46.504 298.48 48.562 297.188 C58.327 290.346 62.462 281.684 67 271 C67.33 270.268 67.66 269.536 68 268.781 C72.372 258.399 73.286 247.315 73.375 236.188 C73.389 235.234 73.403 234.28 73.417 233.297 C73.367 225.612 72.093 218.662 68.25 211.938 C65.101 209.226 63.138 208.857 59 209 C52.637 212.309 51.287 217.666 49.078 224.234 C48 227 48 227 46 228 C44.783 225.566 44.68 223.582 44.438 220.875 C44.354 219.965 44.27 219.055 44.184 218.117 C44.123 217.419 44.062 216.72 44 216 C42.372 218.934 41.609 221.471 41.105 224.781 C40.884 226.159 40.884 226.159 40.657 227.565 C40.502 228.534 40.347 229.502 40.188 230.5 C37.645 245.117 33.857 256.576 21.547 265.848 C7.886 274.59 -10.625 276.361 -26.398 273.352 C-39.065 269.105 -47.796 260.768 -53.688 249.062 C-56.707 242.869 -59.264 236.703 -61.125 230.062 C-61.689 227.149 -61.689 227.149 -63 226 C-64.934 225.874 -66.874 225.824 -68.812 225.812 C-69.871 225.798 -70.929 225.784 -72.02 225.77 C-75.046 226.004 -76.486 226.371 -79 228 C-80.014 229.84 -80.014 229.84 -80.547 232.031 C-80.786 232.837 -81.025 233.643 -81.271 234.473 C-81.632 235.724 -81.632 235.724 -82 237 C-88.826 257.873 -88.826 257.873 -96 265 C-96.581 265.629 -97.163 266.258 -97.762 266.906 C-103.253 272.34 -109.743 274.668 -117 277 C-118.061 277.37 -119.122 277.74 -120.215 278.121 C-125.194 279.277 -129.907 279.291 -135 279.25 C-135.959 279.258 -136.918 279.265 -137.906 279.273 C-143.3 279.259 -147.858 278.81 -153 277 C-153.878 276.693 -154.756 276.386 -155.66 276.07 C-167.232 271.517 -175.713 264.488 -180.901 253.006 C-184.358 244.819 -187.426 236.552 -189.395 227.871 C-189.594 227.254 -189.794 226.636 -190 226 C-192.236 224.882 -193.649 224.806 -196.133 224.684 C-196.938 224.642 -197.744 224.6 -198.574 224.557 C-199.837 224.498 -199.837 224.498 -201.125 224.438 C-201.974 224.394 -202.824 224.351 -203.699 224.307 C-205.799 224.2 -207.9 224.1 -210 224 C-209.673 224.991 -209.345 225.983 -209.008 227.004 C-207.861 231.018 -207.801 234.759 -207.875 238.938 C-207.884 239.621 -207.893 240.305 -207.902 241.01 C-207.926 242.673 -207.961 244.337 -208 246 C-209.32 246.33 -210.64 246.66 -212 247 C-214.642 242.345 -215.896 237.806 -217.059 232.586 C-218.553 228.482 -221.138 226.549 -224.75 224.25 C-228.655 222.748 -231.919 222.069 -236 223 C-240.989 225.517 -244.349 228.497 -246.435 233.794 C-247.653 238.55 -247.427 243.435 -247.375 248.312 C-247.392 249.928 -247.392 249.928 -247.41 251.576 C-247.373 261.765 -244.838 270.105 -240.25 279.125 C-239.724 280.16 -239.724 280.16 -239.187 281.216 C-234.494 290.174 -228.758 295.917 -220 301 C-219.362 301.38 -218.724 301.761 -218.066 302.152 C-212.442 304.459 -204.79 303.252 -199 302 C-196.178 307.073 -194.773 312.122 -193.312 317.688 C-184.243 350.626 -165.429 380.297 -138 401 C-137.153 401.663 -136.306 402.325 -135.434 403.008 C-110.058 422.295 -79.727 433.593 -47.688 429.375 C-41.904 428.275 -36.857 425.868 -31.617 423.242 C-29 422 -29 422 -27 422 C-27 425.3 -27 428.6 -27 432 C-26.34 432 -25.68 432 -25 432 C-25 431.34 -25 430.68 -25 430 C-20.847 426.885 -20.847 426.885 -17.688 427.312 C-16.852 427.653 -16.852 427.653 -16 428 C-16 430.741 -16.481 432.456 -18.391 434.457 C-38.679 450.611 -67.956 454.368 -92.918 451.687 C-123.452 447.615 -157.319 433.636 -178 410 C-178 409.34 -178 408.68 -178 408 C-182.488 410.743 -184.546 413.844 -186.266 418.68 C-189.554 433.545 -186.16 448.575 -182.692 463.082 C-182.043 465.82 -181.433 468.563 -180.836 471.312 C-177.974 484.244 -174.025 496.752 -169.876 509.322 C-168.791 512.64 -167.762 515.971 -166.75 519.312 C-163.744 529.181 -160.364 538.917 -156.867 548.621 C-156.478 549.703 -156.089 550.784 -155.688 551.899 C-145.993 578.778 -135.879 605.436 -125.08 631.893 C-123.082 636.79 -121.109 641.697 -119.141 646.605 C-112.767 662.48 -106.222 678.27 -99.5 694 C-87.166 722.862 -75.539 752.001 -64.047 781.207 C-63.649 782.216 -63.649 782.216 -63.244 783.244 C-61.45 787.813 -59.714 792.401 -58 797 C-55.601 790.082 -53.988 782.993 -52.312 775.875 C-52.138 775.136 -51.964 774.398 -51.784 773.637 C-47.984 757.485 -44.819 741.226 -41.743 724.924 C-40.729 719.569 -39.686 714.221 -38.625 708.875 C-38.392 707.676 -38.392 707.676 -38.153 706.454 C-37.117 701.233 -37.117 701.233 -36 699 C-35.726 697.506 -35.492 696.004 -35.281 694.5 C-35.154 693.613 -35.026 692.726 -34.895 691.812 C-34.699 690.42 -34.699 690.42 -34.5 689 C-34.243 687.166 -33.982 685.333 -33.719 683.5 C-33.548 682.278 -33.548 682.278 -33.373 681.031 C-33 679 -33 679 -32 677 C-31.725 674.897 -31.556 672.793 -31.379 670.68 C-30.97 667.784 -30.24 665.024 -29.51 662.196 C-28.613 658.337 -28.142 654.424 -27.625 650.5 C-26.552 642.661 -25.333 634.861 -24 627.062 C-21.068 609.78 -18.829 592.432 -17 575 C-17.728 574.911 -18.457 574.822 -19.207 574.73 C-28.999 572.169 -35.32 560.722 -40.737 552.814 C-49.945 538.769 -49.945 538.769 -63 529 C-65.957 528.417 -65.957 528.417 -69 529 C-71.834 531.333 -71.834 531.333 -74 534 C-74.33 534.33 -74.66 534.66 -75 535 C-75.116 537.631 -75.164 540.235 -75.168 542.867 C-75.172 543.705 -75.176 544.542 -75.18 545.405 C-75.19 548.228 -75.19 551.052 -75.188 553.875 C-75.188 554.847 -75.188 555.819 -75.189 556.821 C-75.18 575.059 -74.69 593.274 -74.062 611.5 C-74.019 612.776 -73.976 614.052 -73.931 615.367 C-73.803 619.047 -73.671 622.726 -73.535 626.406 C-73.497 627.487 -73.458 628.568 -73.418 629.681 C-73.172 636.081 -72.751 642.448 -72.237 648.831 C-71.87 653.739 -71.661 658.649 -71.465 663.566 C-71.422 664.607 -71.379 665.648 -71.335 666.72 C-71.245 668.899 -71.157 671.078 -71.07 673.257 C-70.938 676.559 -70.8 679.86 -70.662 683.162 C-70.575 685.297 -70.489 687.432 -70.402 689.566 C-70.362 690.536 -70.321 691.505 -70.279 692.503 C-70.011 699.338 -69.956 706.16 -70 713 C-71.32 713 -72.64 713 -74 713 C-77.003 680.466 -79.032 647.86 -79.738 615.195 C-79.763 614.083 -79.788 612.97 -79.814 611.824 C-80.044 601.584 -80.261 591.344 -80.43 581.104 C-80.526 575.401 -80.649 569.7 -80.791 563.999 C-80.839 561.863 -80.876 559.726 -80.902 557.59 C-80.938 554.636 -81.011 551.684 -81.091 548.731 C-81.093 547.874 -81.095 547.017 -81.096 546.134 C-81.33 539.629 -83.518 534.783 -88 530 C-91.681 528.978 -93.492 529.207 -96.871 530.984 C-108.237 538.76 -115.885 550.828 -123.579 561.962 C-125.649 564.931 -127.781 567.844 -129.938 570.75 C-130.607 571.652 -131.276 572.555 -131.965 573.484 C-134.166 576.205 -136.387 578.668 -139 581 C-139.99 581 -140.98 581 -142 581 C-141.566 575.221 -139.16 571.598 -136 566.938 C-135.504 566.19 -135.008 565.443 -134.496 564.673 C-133.009 562.441 -131.506 560.219 -130 558 C-129.591 557.391 -129.182 556.782 -128.761 556.155 C-107.745 524.86 -107.745 524.86 -96 520 C-90.898 519.23 -87.283 519.179 -82.875 522 C-82.256 522.66 -81.638 523.32 -81 524 C-78.77 522.926 -76.85 521.885 -74.875 520.375 C-70.674 518.366 -66.579 518.298 -62 519 C-46.73 525.241 -37.479 542.865 -28.717 555.91 C-27.678 557.448 -26.621 558.975 -25.562 560.5 C-24.76 561.691 -24.76 561.691 -23.941 562.906 C-22.104 564.888 -20.707 565.843 -18.379 567.131 C-17.264 567.748 -16.149 568.364 -15 569 C-14.951 567.801 -14.902 566.601 -14.852 565.365 C-14.304 552.839 -13.272 540.409 -12 527.938 C-9.899 507.294 -8.813 486.883 -8.815 466.126 C-8.812 462.844 -8.794 459.563 -8.775 456.281 C-8.772 454.164 -8.77 452.047 -8.77 449.93 C-8.759 448.481 -8.759 448.481 -8.748 447.003 C-8.765 441.765 -9.223 437.045 -10.571 431.975 C-11 430 -11 430 -11 426 C-3.925 426.151 -0.162 429.405 5 434 C5.722 434.628 6.444 435.256 7.188 435.902 C10.764 439.23 13.758 442.35 15.992 446.711 C23.183 460.185 34.549 463.844 48.183 468.811 C54.856 471.26 61.266 474.206 67.688 477.25 C68.832 477.788 69.976 478.327 71.156 478.882 C73.536 480.003 75.915 481.126 78.293 482.252 C82.134 484.067 85.986 485.854 89.84 487.641 C105.038 494.7 120.139 501.95 135.151 509.399 C136.928 510.28 138.706 511.159 140.485 512.034 C150.133 516.788 159.574 521.78 168.812 527.293 C170.037 528.022 170.037 528.022 171.287 528.766 C193.818 542.443 209.053 563.402 220.048 586.991 C220.983 588.965 221.964 590.908 222.961 592.852 C228.637 604.11 233.164 615.807 237.688 627.562 C238.005 628.386 238.323 629.21 238.651 630.059 C242.322 639.596 245.78 649.171 248.958 658.884 C250.456 663.444 252.109 667.89 253.945 672.326 C256.238 678.139 258.193 684.081 260.209 689.994 C260.995 692.299 261.786 694.602 262.578 696.904 C265.236 704.659 267.793 712.429 270.168 720.276 C271.191 723.627 272.303 726.936 273.438 730.25 C275.355 735.934 277.11 741.651 278.778 747.415 C280.244 752.468 281.756 757.507 283.293 762.539 C288.411 779.303 293.396 796.086 298 813 C298.193 813.706 298.385 814.413 298.583 815.141 C299.554 818.715 300.503 822.294 301.44 825.876 C302.132 828.499 302.836 831.119 303.539 833.738 C304.089 835.805 304.638 837.871 305.188 839.938 C305.45 840.91 305.712 841.882 305.983 842.883 C308.282 851.589 309.18 859.811 309.188 868.812 C309.2 869.657 309.212 870.502 309.225 871.373 C309.228 872.59 309.228 872.59 309.23 873.832 C309.237 874.926 309.237 874.926 309.243 876.042 C309 878 309 878 307 881 C306.01 881 305.02 881 304 881 C302.716 878.431 302.559 875.908 302.202 873.085 C300.387 859.067 296.739 845.608 293 832 C292.56 830.374 292.119 828.748 291.68 827.121 C288.549 815.632 285.171 804.212 281.817 792.787 C281.092 790.312 280.371 787.836 279.652 785.359 C277.316 777.324 274.852 769.34 272.301 761.37 C270.406 755.405 268.683 749.403 267 743.375 C265.014 736.281 262.8 729.333 260.265 722.416 C258.589 717.792 257.131 713.137 255.797 708.402 C252.671 697.581 249.008 686.95 245.312 676.312 C244.948 675.261 244.583 674.209 244.206 673.125 C219.944 594.71 219.944 594.71 165 538 C163.319 537.065 161.638 536.131 159.957 535.195 C154.33 532.082 148.669 529.035 143 526 C142.082 525.506 141.164 525.012 140.218 524.503 C127.641 517.754 114.875 511.519 101.905 505.572 C95.942 502.837 90.02 500.067 84.188 497.062 C73.148 491.4 61.725 486.493 50.404 481.424 C44.926 478.971 39.461 476.491 34 474 C34.477 474.888 34.953 475.776 35.445 476.69 C40.62 486.35 45.683 496.063 50.688 505.812 C51.269 506.945 51.269 506.945 51.862 508.1 C54.216 512.688 56.565 517.277 58.911 521.869 C59.612 523.24 60.313 524.612 61.015 525.982 C72.656 548.73 72.656 548.73 77.312 559.75 C77.597 560.411 77.881 561.073 78.175 561.754 C79.74 565.621 80.713 568.849 80 573 C76.25 577.113 71.059 578.933 66 581 C64.745 581.521 64.745 581.521 63.466 582.053 C56.754 584.795 49.998 587.09 43 589 C46.135 592.428 49.629 594.786 53.562 597.188 C76.836 611.814 76.836 611.814 79.914 622.035 C80.036 627.667 78.245 632.097 76.25 637.312 C75.843 638.406 75.436 639.5 75.017 640.627 C70.799 651.818 66.164 662.83 61.394 673.794 C60.036 676.918 58.691 680.046 57.348 683.176 C48.294 704.137 38.288 724.654 27.989 745.029 C26.864 747.27 25.756 749.519 24.648 751.77 C19.088 763.042 13.223 774.081 7 785 C6.452 785.967 5.904 786.934 5.34 787.93 C-6.156 808.193 -17.759 828.601 -31.727 847.29 C-33.165 849.222 -34.58 851.169 -35.996 853.117 C-51.992 874.977 -51.992 874.977 -60.938 876.5 C-75.438 874.133 -89.718 846.069 -98.249 834.66 C-102.398 829.117 -106.59 823.611 -110.812 818.125 C-115.03 812.636 -119.136 807.086 -123.133 801.435 C-131.98 788.942 -141.195 776.712 -150.396 764.48 C-154.613 758.867 -158.786 753.224 -162.938 747.562 C-172.727 734.233 -182.739 721.069 -192.996 708.095 C-197.04 702.973 -201 697.787 -204.954 692.594 C-208.35 688.14 -211.781 683.717 -215.238 679.31 C-221.706 671.058 -227.927 662.662 -234.023 654.133 C-236.598 650.537 -239.251 647.013 -241.938 643.5 C-253.198 628.437 -253.198 628.437 -252.641 621.211 C-251.315 616.635 -248.157 613.451 -245 610 C-244.371 609.265 -243.742 608.53 -243.094 607.773 C-236.384 600.057 -229.03 592.942 -221.768 585.751 C-219.504 583.509 -217.251 581.255 -215 579 C-216.018 579.012 -217.037 579.023 -218.086 579.035 C-258.437 579.353 -258.437 579.353 -266.852 574.281 C-269.555 571.41 -269.646 570.218 -269.562 566.312 C-268.365 535.053 -260.077 497.155 -246 469 C-246.622 469.284 -247.244 469.568 -247.885 469.86 C-264.972 477.636 -282.177 485.118 -299.438 492.5 C-301.585 493.419 -303.733 494.339 -305.881 495.259 C-314.211 498.824 -322.543 502.388 -330.89 505.914 C-351.311 514.545 -371.145 523.952 -390.062 535.562 C-390.873 536.051 -391.683 536.54 -392.518 537.043 C-393.246 537.505 -393.973 537.966 -394.723 538.441 C-395.36 538.84 -395.996 539.239 -396.653 539.651 C-398.471 541.154 -398.471 541.154 -398 545 C-396.242 546.789 -396.242 546.789 -393.75 548.5 C-381.31 558.226 -369.682 569.974 -359.988 582.445 C-357.625 585.481 -355.129 588.393 -352.625 591.312 C-346.884 598.055 -341.421 604.999 -336 612 C-335.158 613.082 -334.315 614.164 -333.473 615.246 C-330.961 618.481 -328.473 621.735 -326 625 C-325.562 625.578 -325.124 626.157 -324.672 626.752 C-307.013 650.173 -294.236 673.378 -287 702 C-286.791 702.816 -286.583 703.632 -286.368 704.473 C-283.899 714.316 -282.264 724.214 -280.95 734.274 C-280.839 735.122 -280.728 735.97 -280.613 736.844 C-280.518 737.598 -280.423 738.353 -280.325 739.131 C-280.077 741.084 -280.077 741.084 -279 743 C-278.667 744.767 -278.371 746.54 -278.096 748.317 C-277.036 754.887 -275.775 761.405 -274.469 767.93 C-273.983 770.379 -273.497 772.828 -273.012 775.277 C-272.256 779.078 -271.499 782.878 -270.741 786.677 C-270.001 790.386 -269.266 794.095 -268.531 797.805 C-268.307 798.92 -268.083 800.035 -267.852 801.184 C-266.492 808.072 -265.385 814.96 -264.452 821.919 C-263.959 825.278 -263.283 828.548 -262.465 831.84 C-260.125 842.714 -259.221 854.734 -264 865 C-264.99 865.33 -265.98 865.66 -267 866 C-268.946 861.898 -269.224 858.578 -269.312 854.062 C-269.984 836.981 -273.43 819.534 -277.552 802.97 C-280.395 791.535 -282.343 779.894 -284.328 768.285 C-284.441 767.625 -284.554 766.965 -284.67 766.285 C-285.232 762.998 -285.788 759.71 -286.338 756.421 C-286.539 755.226 -286.741 754.032 -286.949 752.801 C-287.128 751.73 -287.307 750.659 -287.491 749.556 C-287.879 747.023 -287.879 747.023 -289 745 C-289.251 743.623 -289.461 742.239 -289.648 740.852 C-289.767 740.01 -289.886 739.168 -290.008 738.301 C-290.247 736.556 -290.484 734.812 -290.719 733.066 C-291.54 727.275 -292.781 721.709 -294.25 716.049 C-295.23 712.066 -295.955 708.055 -296.685 704.02 C-302.36 673.044 -317.15 649.883 -336.687 625.64 C-338.016 623.98 -339.327 622.307 -340.633 620.629 C-351.395 606.796 -362.588 593.3 -374 580 C-374.506 579.404 -375.012 578.809 -375.533 578.195 C-380.318 572.628 -385.424 567.427 -390.625 562.25 C-391.458 561.413 -392.29 560.577 -393.148 559.715 C-394.363 558.502 -394.363 558.502 -395.602 557.266 C-396.327 556.541 -397.052 555.817 -397.799 555.071 C-401.82 550.783 -401.82 550.783 -407 549 C-422.041 556.52 -428.765 578.547 -433.75 593.375 C-437.919 606.087 -441.516 618.754 -442.736 632.113 C-443 634 -443 634 -444 636 C-444.248 637.378 -444.452 638.765 -444.633 640.154 C-444.746 641.02 -444.86 641.886 -444.977 642.779 C-445.157 644.199 -445.157 644.199 -445.34 645.648 C-445.466 646.634 -445.593 647.62 -445.723 648.635 C-453.397 709.035 -453.426 769.159 -449.754 829.867 C-449.663 831.368 -449.663 831.368 -449.571 832.898 C-449.247 837.968 -448.799 842.998 -448.209 848.044 C-447.739 852.435 -447.774 856.839 -447.75 861.25 C-447.729 862.217 -447.709 863.184 -447.688 864.18 C-447.659 869.27 -447.644 872.867 -451 877 C-453.626 875.412 -454.829 874.579 -455.714 871.583 C-455.812 870.644 -455.91 869.706 -456.012 868.738 C-456.13 867.701 -456.248 866.664 -456.369 865.596 C-456.474 864.512 -456.579 863.429 -456.688 862.312 C-456.804 861.248 -456.921 860.184 -457.041 859.088 C-457.26 857.081 -457.473 855.073 -457.675 853.064 C-457.919 850.759 -458.203 848.458 -458.505 846.16 C-459.035 841.951 -459.32 837.751 -459.535 833.516 C-459.578 832.668 -459.622 831.821 -459.666 830.948 C-461.001 803.518 -461.278 776.083 -461.363 748.625 C-461.375 745.681 -461.394 742.737 -461.416 739.793 C-461.565 718.552 -461.12 697.517 -459.16 676.355 C-459.078 675.462 -458.995 674.569 -458.91 673.649 C-457.206 655.609 -454.389 637.793 -451 620 C-450.793 618.879 -450.585 617.757 -450.372 616.602 C-444.322 584.281 -432.896 551.328 -405 531.562 C-402.687 530.008 -400.348 528.501 -398 527 C-397.372 526.592 -396.744 526.184 -396.097 525.764 C-373.363 511.072 -348.789 499.726 -324 489 C-323.119 488.618 -322.239 488.237 -321.332 487.844 C-315.232 485.202 -309.128 482.57 -303.021 479.944 C-299.82 478.566 -296.623 477.182 -293.425 475.797 C-283.916 471.698 -274.414 467.697 -264.676 464.172 C-245.547 457.717 -245.547 457.717 -233.082 442.625 C-232.411 441.128 -231.745 439.628 -231.086 438.126 C-225.547 427.282 -213.995 420.192 -203 416 C-201.468 415.606 -199.927 415.243 -198.375 414.938 C-193.922 413.701 -193.323 411.896 -191 408 C-186.684 403.58 -182.61 400.616 -176.438 399.562 C-174 400 -174 400 -171.688 402.375 C-170 405 -170 405 -170 407 C-169.34 407 -168.68 407 -168 407 C-167.807 406.192 -167.613 405.384 -167.414 404.551 C-167.023 402.948 -167.023 402.948 -166.625 401.312 C-166.37 400.257 -166.115 399.201 -165.852 398.113 C-165.081 395.296 -164.145 392.683 -163 390 C-163.657 389.213 -163.657 389.213 -164.328 388.41 C-180.687 368.427 -203 339.115 -203 312 C-203.655 312.058 -204.31 312.116 -204.984 312.176 C-217.459 312.792 -227.861 307.232 -237 299 C-250.076 284.962 -255.353 267.933 -255.375 249.125 C-255.399 248.018 -255.424 246.91 -255.449 245.77 C-255.473 238.991 -254.569 233.605 -251.959 227.335 C-251.084 225.204 -250.361 223.276 -250 221 C-251.375 218.98 -251.375 218.98 -253.438 217.062 C-262.393 207.481 -267.623 196.215 -272 184 C-272.255 183.308 -272.51 182.616 -272.773 181.902 C-279.67 163.09 -283.187 144.044 -283.24 124.011 C-283.25 121.835 -283.281 119.659 -283.312 117.482 C-283.38 108.582 -282.44 100.62 -280 92 C-279.71 90.905 -279.42 89.809 -279.121 88.681 C-272.703 64.929 -257.989 46.357 -236.814 34.009 C-224.076 26.924 -210.591 23.196 -196 24 C-195.979 22.969 -195.959 21.938 -195.938 20.875 C-194.037 6.529 -183.224 -5.15 -172.438 -13.875 C-170.973 -14.937 -169.494 -15.979 -168 -17 C-167.303 -17.498 -166.605 -17.995 -165.887 -18.508 C-157.657 -23.938 -148.34 -27.048 -139 -30 C-138.185 -30.263 -137.371 -30.525 -136.531 -30.796 C-88.668 -45.507 -38.066 -30.651 0 0 Z " fill="#172234" transform="translate(597,143)"/>
<path d="M0 0 C0.731 0.31 1.461 0.619 2.214 0.938 C23.711 10.197 44.154 23.728 58.688 42.375 C60.786 45.148 60.786 45.148 63.734 46.121 C68.336 48.768 70.618 52.345 73.562 56.688 C74.163 57.56 74.764 58.433 75.383 59.332 C91.385 83.098 106.707 110.166 101.32 139.73 C100.647 142.209 99.923 144.604 99 147 C103.83 142.892 104.624 136.285 105.316 130.238 C107.121 98.125 91.947 66.924 71.305 42.789 C69.746 40.651 68.895 38.48 68 36 C70.683 37.979 73.343 39.986 76 42 C77.191 42.888 77.191 42.888 78.406 43.793 C97.842 58.708 111.448 80.225 117 104 C117.262 104.984 117.262 104.984 117.529 105.989 C121.773 122.878 120.433 142.223 112.578 157.824 C109.259 163.222 104.727 168.137 99 171 C92.301 171.864 86.722 170.582 81 167 C78.438 164.25 78.438 164.25 77 162 C78.98 161.67 80.96 161.34 83 161 C82.866 158.561 82.866 158.561 82 156 C79.924 154.559 79.924 154.559 77.312 153.75 C76.463 153.435 75.614 153.121 74.738 152.797 C68.638 151.022 62.897 150.901 56.605 151.008 C54.743 151.025 52.88 151.042 51.018 151.059 C48.12 151.089 45.222 151.124 42.324 151.171 C21.338 151.493 0.655 150.463 -15.445 135.102 C-19.721 130.263 -22.812 124.467 -26.114 118.949 C-37.637 99.794 -52.131 88.719 -72 79 C-72.913 78.545 -73.825 78.09 -74.766 77.621 C-83.514 73.476 -93.337 71.474 -103 73 C-106.036 75.359 -106.877 76.375 -107.625 80.188 C-106.555 86.712 -103.503 91.089 -98.258 95.094 C-91.181 99.674 -86.412 101.181 -78.125 101.188 C-77.322 101.2 -76.519 101.212 -75.691 101.225 C-71.338 101.235 -67.965 101.031 -64 99 C-64.594 98.991 -65.189 98.981 -65.801 98.972 C-68.535 98.917 -71.267 98.834 -74 98.75 C-75.402 98.729 -75.402 98.729 -76.832 98.707 C-86.514 98.369 -93.245 94.879 -100 88 C-102.282 85.076 -103.086 83.951 -102.75 80.25 C-102 78 -102 78 -101 77 C-95.52 76.565 -91.463 77.655 -86.562 79.938 C-85.875 80.25 -85.188 80.562 -84.479 80.883 C-72.039 86.651 -60.722 93.44 -50 102 C-49.398 102.437 -48.796 102.874 -48.176 103.324 C-40.26 109.245 -36.207 118.415 -32 127.062 C-25.194 141.011 -16.937 152.229 -2 158 C16.895 163.773 34.763 164.409 54.238 161.074 C60.202 160.06 65.942 159.625 72 160 C72 160.66 72 161.32 72 162 C71.34 162 70.68 162 70 162 C71.268 165.431 72.731 168.309 74.812 171.312 C75.34 172.089 75.867 172.865 76.41 173.664 C76.935 174.435 77.459 175.206 78 176 C78.927 177.389 79.844 178.785 80.75 180.188 C81.33 181.075 81.33 181.075 81.922 181.98 C85.188 188.099 85.251 193.607 85.125 200.375 C85.116 201.302 85.107 202.229 85.098 203.184 C85.074 205.456 85.041 207.728 85 210 C78.488 210.227 72.468 209.932 66.094 208.535 C40.822 204.164 7.62 204.105 -14.758 218.812 C-17.318 221.311 -18.589 223.733 -20 227 C-38.931 228.323 -38.931 228.323 -43.566 225.359 C-45.125 223.25 -45.125 223.25 -46.504 221.035 C-51.453 214.303 -65.309 213.278 -73 212 C-78.03 211.585 -83.017 211.523 -88.062 211.562 C-89.066 211.566 -89.066 211.566 -90.09 211.57 C-106.492 211.66 -124.1 213.55 -139 221 C-142.695 221.234 -146.384 221.394 -150.084 221.518 C-155.059 221.735 -159.252 222.511 -164 224 C-166.938 224.125 -166.938 224.125 -169 224 C-168.247 220.51 -166.831 217.776 -165.067 214.671 C-159.184 204.266 -155.295 193.464 -152 182 C-151.72 181.056 -151.439 180.112 -151.151 179.14 C-149.108 171.765 -148.571 164.944 -148.688 157.312 C-148.683 155.718 -148.683 155.718 -148.678 154.092 C-148.721 147.763 -149.391 142.122 -151 136 C-151.99 136 -152.98 136 -154 136 C-153.974 136.596 -153.948 137.192 -153.921 137.806 C-152.827 166.89 -158.718 197.641 -176.438 221.562 C-182.621 227.445 -191.714 230.488 -200 232 C-206.717 230.246 -211.766 220.788 -215.161 215.032 C-217.669 210.459 -219.872 205.76 -222 201 C-222.46 200.001 -222.92 199.002 -223.395 197.973 C-226.488 190.657 -228.363 183.075 -230.25 175.375 C-230.509 174.326 -230.767 173.277 -231.034 172.196 C-235.986 151.154 -237.424 124.619 -230 104 C-229.748 103.287 -229.496 102.574 -229.236 101.84 C-223.582 86.247 -215.787 72.795 -202.25 62.875 C-201.545 62.354 -200.84 61.832 -200.113 61.295 C-195.012 57.59 -189.909 54.277 -184 52 C-183.38 51.743 -182.76 51.486 -182.121 51.222 C-175.823 48.824 -170.123 48.64 -163.438 48.812 C-162.429 48.826 -161.42 48.84 -160.381 48.854 C-157.92 48.889 -155.46 48.938 -153 49 C-152.709 50.256 -152.417 51.511 -152.117 52.805 C-148.713 66.926 -144.108 76.379 -134 87 C-136.362 89.441 -138.733 91.771 -141.312 93.984 C-147.318 99.148 -151.801 104.304 -156 111 C-156.709 112.078 -157.418 113.155 -158.148 114.266 C-172.132 136.006 -178.302 161.568 -183.289 186.65 C-184.416 192.312 -185.686 197.88 -187.25 203.438 C-188.71 208.666 -189.62 213.587 -190 219 C-181.589 211.77 -180.326 196.188 -178.234 185.866 C-169.307 142.122 -169.307 142.122 -158 124 C-157.34 123.67 -156.68 123.34 -156 123 C-156 124.65 -156 126.3 -156 128 C-155.01 128 -154.02 128 -153 128 C-152.865 127.417 -152.729 126.835 -152.59 126.234 C-149.554 114.671 -143.582 103.9 -133.395 97.316 C-128.101 94.272 -123.094 91.748 -117 91 C-115 92.375 -115 92.375 -113 94 C-110.281 94.279 -107.743 94.137 -105 94 C-104.67 93.34 -104.34 92.68 -104 92 C-104.804 92 -105.609 92 -106.438 92 C-112.693 90.244 -116.998 85.85 -120.688 80.598 C-123.889 74.841 -125.178 69.54 -124 63 C-121.733 56.491 -116.853 52.475 -110.871 49.383 C-106.558 47.6 -102.492 47.543 -97.875 47.625 C-97.035 47.637 -96.194 47.648 -95.328 47.66 C-74.414 48.205 -53.063 58.176 -38.424 73.036 C-30.047 81.964 -23.807 91.83 -20.035 103.488 C-19.148 106.304 -19.148 106.304 -16 108 C-15.063 93.48 -23.151 82.335 -32.438 71.75 C-33.941 70.15 -35.461 68.566 -37 67 C-37.686 66.301 -38.372 65.603 -39.078 64.883 C-55.196 49.541 -77.822 42.452 -99.723 42.436 C-108.703 42.719 -115.015 45.845 -122 51.375 C-126.662 57.494 -128.687 62.445 -128.395 70.254 C-127.503 76.459 -124.361 81.79 -121 87 C-129.464 84.681 -134.963 78.565 -139.387 71.215 C-145.909 59.608 -147.505 48.231 -146 35 C-143.427 26.053 -137.504 19.436 -131 13 C-130.408 12.375 -129.817 11.75 -129.207 11.105 C-97.451 -19.95 -37.158 -15.847 0 0 Z " fill="#FCCFAB" transform="translate(557,127)"/>
<path d="M0 0 C5.551 4.92 7.52 11.443 8.287 18.726 C8.401 21.553 8.417 24.358 8.375 27.188 C8.365 28.195 8.355 29.202 8.344 30.24 C7.92 50.81 1.156 72.525 -13.754 87.223 C-16.099 89.078 -18.22 89.953 -21 91 C-20.929 89.994 -20.857 88.988 -20.783 87.951 C-20.044 76.934 -19.878 65.977 -19.938 54.938 C-19.943 53.281 -19.947 51.624 -19.951 49.967 C-19.962 45.978 -19.979 41.989 -20 38 C-20.66 38 -21.32 38 -22 38 C-21.965 39.277 -21.93 40.555 -21.895 41.871 C-21.675 54.06 -22.254 66.06 -23.375 78.188 C-23.47 79.233 -23.47 79.233 -23.567 80.301 C-24.36 88.934 -25.436 97.47 -27 106 C-27.139 106.793 -27.278 107.586 -27.421 108.404 C-34.767 149.506 -56.028 186.268 -90.273 210.297 C-93 212 -93 212 -95 212 C-95 212.66 -95 213.32 -95 214 C-114.897 224.205 -136.864 224.518 -158.125 217.938 C-178.623 210.906 -197.357 200.028 -213 185 C-214.328 183.869 -215.662 182.744 -217 181.625 C-241.506 160.06 -255.642 129.921 -263.309 98.703 C-263.884 96.055 -263.884 96.055 -265 94 C-265.763 94.165 -266.526 94.33 -267.312 94.5 C-277.627 95.899 -284.336 95.166 -293 89 C-303.898 80.68 -311.274 65.358 -314 52 C-314.275 47.92 -314.277 43.838 -314.312 39.75 C-314.342 38.643 -314.371 37.535 -314.4 36.395 C-314.462 28.471 -313.471 22.909 -308.141 16.906 C-304.276 14.032 -301.142 12.057 -296.086 12.477 C-291.021 13.748 -286.433 16.024 -283.34 20.289 C-281.881 23.241 -281.1 25.979 -280.375 29.188 C-279.505 33.208 -279.505 33.208 -278 37 C-277.01 37 -276.02 37 -275 37 C-274.973 34.646 -274.953 32.292 -274.938 29.938 C-274.926 28.627 -274.914 27.316 -274.902 25.965 C-274.995 22.184 -275.386 18.721 -276 15 C-273.062 14.946 -270.125 14.906 -267.188 14.875 C-265.937 14.85 -265.937 14.85 -264.662 14.824 C-263.86 14.818 -263.057 14.811 -262.23 14.805 C-261.492 14.794 -260.754 14.784 -259.993 14.773 C-258 15 -258 15 -255 17 C-254.085 19.447 -253.325 21.805 -252.625 24.312 C-252.192 25.769 -251.756 27.225 -251.316 28.68 C-250.988 29.772 -250.988 29.772 -250.653 30.886 C-248.134 39.044 -245.218 46.394 -240.137 53.293 C-239 55 -239 55 -239 57 C-238.416 57.281 -237.832 57.562 -237.23 57.852 C-235.156 58.92 -233.26 60.093 -231.312 61.375 C-218.146 69.662 -202.613 71.361 -187.347 68.503 C-178.83 66.358 -170.273 63.37 -164 57 C-163.465 56.478 -162.93 55.956 -162.379 55.418 C-155.018 47.58 -152.068 37.733 -149.23 27.601 C-147.911 23.088 -146.87 19.974 -143 17 C-140.294 15.647 -138.081 15.794 -135.062 15.75 C-134.002 15.724 -132.941 15.698 -131.848 15.672 C-129 16 -129 16 -127.246 17.016 C-125.699 19.48 -125.163 21.978 -124.537 24.797 C-121.208 38.461 -114.629 50.793 -102.633 58.492 C-89.834 65.822 -74.171 65.763 -59.871 62.883 C-49.8 59.786 -40.156 54.88 -34.582 45.652 C-29.455 35.924 -27.275 25.976 -25.539 15.201 C-25.382 14.301 -25.225 13.4 -25.062 12.473 C-24.93 11.661 -24.797 10.849 -24.66 10.012 C-24 8 -24 8 -21 6 C-20.939 6.782 -20.879 7.565 -20.816 8.371 C-20.691 9.889 -20.691 9.889 -20.562 11.438 C-20.481 12.447 -20.4 13.456 -20.316 14.496 C-20.268 16.936 -20.268 16.936 -19 18 C-18.58 16.697 -18.58 16.697 -18.152 15.367 C-14.053 3.585 -14.053 3.585 -8.828 -0.164 C-5.451 -1.708 -3.407 -1.262 0 0 Z " fill="#FCCFAB" transform="translate(663,352)"/>
<path d="M0 0 C0.04 0.683 0.079 1.366 0.12 2.069 C1.32 21.865 4.148 40.376 9.688 59.402 C10.565 62.423 11.374 65.449 12.125 68.504 C23.523 114.064 42.551 158.468 60 202 C60.336 202.838 60.672 203.677 61.018 204.54 C68.614 223.478 76.304 242.375 84.155 261.209 C97.984 294.397 111.629 327.697 124.062 361.438 C124.477 362.558 124.477 362.558 124.899 363.701 C128.586 373.708 131.911 383.793 135 394 C135.371 395.218 135.741 396.436 136.123 397.69 C137.175 401.166 138.215 404.645 139.25 408.125 C139.601 409.29 139.951 410.456 140.312 411.656 C140.648 412.783 140.983 413.91 141.328 415.07 C141.626 416.068 141.924 417.066 142.231 418.094 C143.511 422.933 144.18 427.687 144.312 432.688 C144.369 434.085 144.369 434.085 144.426 435.512 C144 438 144 438 142.23 439.895 C140 441 140 441 137.992 440.93 C129.149 436.803 122.405 423.895 116.824 416.219 C112.883 410.81 108.824 405.497 104.75 400.188 C99.967 393.94 95.254 387.662 90.717 381.234 C85.531 373.891 80.158 366.684 74.814 359.456 C72.454 356.261 70.097 353.063 67.742 349.865 C66.577 348.283 65.412 346.702 64.247 345.122 C61.349 341.192 58.456 337.259 55.57 333.32 C48.749 324.018 41.833 314.795 34.825 305.632 C30.81 300.382 26.826 295.111 22.875 289.812 C16.958 281.892 10.887 274.094 4.8 266.304 C-6.487 251.854 -17.756 237.392 -28.727 222.7 C-30.177 220.764 -31.633 218.833 -33.09 216.902 C-33.624 216.194 -34.158 215.485 -34.708 214.755 C-35.75 213.371 -36.794 211.988 -37.839 210.606 C-38.794 209.337 -39.742 208.063 -40.682 206.782 C-41.537 205.626 -42.413 204.486 -43.314 203.366 C-44.48 201.836 -44.48 201.836 -46 199 C-45.204 194.829 -42.727 192.291 -39.875 189.25 C-36.839 185.98 -33.853 182.69 -30.938 179.312 C-27.857 175.836 -24.6 172.798 -21.055 169.805 C-18.819 167.841 -16.762 165.758 -14.688 163.625 C-10.491 159.341 -5.952 155.676 -1.188 152.043 C1.146 149.863 1.416 149.008 2 146 C1.3 145.985 0.599 145.971 -0.123 145.956 C-20.517 145.49 -40.702 143.98 -61 142 C-60.527 133.391 -59.707 125.064 -57.938 116.625 C-57.722 115.579 -57.506 114.533 -57.284 113.455 C-38.257 23.212 -38.257 23.212 -12.445 4.109 C-8.007 1.291 -5.297 -0.14 0 0 Z " fill="#9F8880" transform="translate(398,568)"/>
<path d="M0 0 C0.731 0.31 1.461 0.619 2.214 0.938 C23.711 10.197 44.154 23.728 58.688 42.375 C60.786 45.148 60.786 45.148 63.734 46.121 C68.336 48.768 70.618 52.345 73.562 56.688 C74.163 57.56 74.764 58.433 75.383 59.332 C91.385 83.098 106.707 110.166 101.32 139.73 C100.647 142.209 99.923 144.604 99 147 C103.83 142.892 104.624 136.285 105.316 130.238 C107.121 98.125 91.947 66.924 71.305 42.789 C69.746 40.651 68.895 38.48 68 36 C70.683 37.979 73.343 39.986 76 42 C77.191 42.888 77.191 42.888 78.406 43.793 C97.842 58.708 111.448 80.225 117 104 C117.262 104.984 117.262 104.984 117.529 105.989 C121.773 122.878 120.433 142.223 112.578 157.824 C109.259 163.222 104.727 168.137 99 171 C92.301 171.864 86.722 170.582 81 167 C78.438 164.25 78.438 164.25 77 162 C78.98 161.67 80.96 161.34 83 161 C82.866 158.561 82.866 158.561 82 156 C79.924 154.559 79.924 154.559 77.312 153.75 C76.463 153.435 75.614 153.121 74.738 152.797 C68.638 151.022 62.897 150.901 56.605 151.008 C54.743 151.025 52.88 151.042 51.018 151.059 C48.12 151.089 45.222 151.124 42.324 151.171 C21.338 151.493 0.655 150.463 -15.445 135.102 C-19.721 130.263 -22.812 124.467 -26.114 118.949 C-37.637 99.794 -52.131 88.719 -72 79 C-72.913 78.545 -73.825 78.09 -74.766 77.621 C-83.514 73.476 -93.337 71.474 -103 73 C-106.135 75.418 -106.901 76.344 -107.5 80.312 C-107.043 83.681 -106.619 84.979 -104.938 87.75 C-104.298 88.822 -103.659 89.895 -103 91 C-103.495 92.485 -103.495 92.485 -104 94 C-104 93.34 -104 92.68 -104 92 C-104.804 92 -105.609 92 -106.438 92 C-112.693 90.244 -116.998 85.85 -120.688 80.598 C-123.889 74.841 -125.178 69.54 -124 63 C-121.733 56.491 -116.853 52.475 -110.871 49.383 C-106.558 47.6 -102.492 47.543 -97.875 47.625 C-97.035 47.637 -96.194 47.648 -95.328 47.66 C-74.414 48.205 -53.063 58.176 -38.424 73.036 C-30.047 81.964 -23.807 91.83 -20.035 103.488 C-19.148 106.304 -19.148 106.304 -16 108 C-15.063 93.48 -23.151 82.335 -32.438 71.75 C-33.941 70.15 -35.461 68.566 -37 67 C-37.686 66.301 -38.372 65.603 -39.078 64.883 C-55.196 49.541 -77.822 42.452 -99.723 42.436 C-108.703 42.719 -115.015 45.845 -122 51.375 C-126.662 57.494 -128.687 62.445 -128.395 70.254 C-127.503 76.459 -124.361 81.79 -121 87 C-129.464 84.681 -134.963 78.565 -139.387 71.215 C-145.909 59.608 -147.505 48.231 -146 35 C-143.427 26.053 -137.504 19.436 -131 13 C-130.408 12.375 -129.817 11.75 -129.207 11.105 C-97.451 -19.95 -37.158 -15.847 0 0 Z " fill="#9F8880" transform="translate(557,127)"/>
<path d="M0 0 C8.639 7.829 14.494 18.142 20.188 28.188 C20.835 29.321 21.482 30.455 22.149 31.623 C34.745 53.739 46.51 76.294 58 99 C58.324 99.639 58.649 100.279 58.983 100.938 C61.056 105.029 63.099 109.135 65.125 113.25 C65.64 114.273 66.155 115.296 66.686 116.349 C67.371 117.762 67.371 117.762 68.07 119.203 C68.47 120.014 68.87 120.825 69.282 121.661 C70.174 124.566 70.062 126.158 69 129 C67.285 130.163 67.285 130.163 65.062 130.914 C64.249 131.2 63.436 131.486 62.598 131.781 C61.312 132.199 61.312 132.199 60 132.625 C59.174 132.911 58.347 133.197 57.496 133.492 C55.826 134.067 54.151 134.63 52.472 135.181 C50.87 135.712 49.274 136.262 47.686 136.836 C42.445 138.705 37.468 139.659 31.938 140.188 C31.167 140.269 30.397 140.351 29.604 140.436 C27.737 140.633 25.868 140.818 24 141 C23.67 142.32 23.34 143.64 23 145 C23.675 145.418 24.349 145.835 25.044 146.266 C28.156 148.195 31.266 150.129 34.375 152.062 C35.436 152.719 36.497 153.376 37.59 154.053 C46.894 159.847 55.89 165.983 64.562 172.688 C65.177 173.147 65.791 173.607 66.424 174.08 C69.587 176.53 71.449 177.991 72 182 C71.242 184.801 71.242 184.801 69.875 188.312 C69.613 188.986 69.352 189.659 69.083 190.352 C54.555 227.242 38.958 264.454 19.992 299.301 C17.977 303.007 16.109 306.776 14.25 310.562 C6.569 326.095 -1.757 341.328 -10.837 356.086 C-12.109 358.18 -13.349 360.291 -14.586 362.406 C-20.586 372.626 -26.926 382.58 -33.5 392.438 C-34.089 393.323 -34.089 393.323 -34.691 394.226 C-42.699 406.237 -42.699 406.237 -46 410 C-46.66 410 -47.32 410 -48 410 C-48.205 408.857 -48.41 407.713 -48.621 406.535 C-48.893 405.044 -49.165 403.553 -49.438 402.062 C-49.572 401.308 -49.707 400.553 -49.846 399.775 C-50.243 396.08 -50.243 396.08 -52 393 C-52.611 386.206 -50.687 380.037 -49 373.5 C-46.009 361.535 -43.378 349.526 -40.938 337.438 C-40.684 336.183 -40.684 336.183 -40.426 334.902 C-40.086 333.221 -39.747 331.54 -39.408 329.859 C-39.159 328.629 -39.159 328.629 -38.906 327.375 C-38.743 326.564 -38.579 325.753 -38.411 324.918 C-36.993 317.908 -35.472 310.923 -33.938 303.938 C-29.468 283.428 -25.859 262.73 -22.247 242.055 C-21.468 237.607 -20.664 233.164 -19.843 228.723 C-16.756 211.909 -14.208 195.067 -11.938 178.125 C-11.589 175.549 -11.239 172.973 -10.89 170.397 C-10.216 165.426 -9.545 160.454 -8.876 155.482 C-8.182 150.325 -7.469 145.171 -6.738 140.02 C3.764 70.071 3.764 70.071 0 0 Z " fill="#9F8880" transform="translate(597,585)"/>
<path d="M0 0 C1.009 0.014 2.017 0.027 3.057 0.041 C5.518 0.076 7.977 0.125 10.438 0.188 C10.729 1.443 11.02 2.699 11.32 3.992 C14.724 18.113 19.33 27.567 29.438 38.188 C27.076 40.628 24.705 42.958 22.125 45.172 C16.12 50.335 11.637 55.491 7.438 62.188 C6.374 63.804 6.374 63.804 5.289 65.453 C-8.694 87.194 -14.865 112.755 -19.851 137.837 C-20.979 143.499 -22.248 149.068 -23.812 154.625 C-25.273 159.854 -26.183 164.774 -26.562 170.188 C-18.152 162.958 -16.889 147.375 -14.797 137.053 C-5.87 93.31 -5.87 93.31 5.438 75.188 C6.097 74.858 6.757 74.528 7.438 74.188 C7.438 75.838 7.438 77.488 7.438 79.188 C8.428 79.188 9.418 79.188 10.438 79.188 C10.767 77.537 11.097 75.887 11.438 74.188 C11.767 74.188 12.097 74.188 12.438 74.188 C12.438 78.478 12.438 82.767 12.438 87.188 C11.447 87.188 10.457 87.188 9.438 87.188 C9.464 87.784 9.49 88.38 9.517 88.994 C10.61 118.078 4.72 148.829 -13 172.75 C-19.184 178.632 -28.277 181.675 -36.562 183.188 C-43.28 181.433 -48.328 171.975 -51.723 166.22 C-54.232 161.647 -56.435 156.947 -58.562 152.188 C-59.023 151.188 -59.483 150.189 -59.957 149.16 C-63.05 141.845 -64.926 134.263 -66.812 126.562 C-67.071 125.513 -67.33 124.464 -67.596 123.383 C-72.549 102.341 -73.986 75.806 -66.562 55.188 C-66.31 54.475 -66.058 53.762 -65.799 53.027 C-60.145 37.435 -52.35 23.983 -38.812 14.062 C-38.107 13.541 -37.402 13.02 -36.676 12.483 C-31.575 8.777 -26.471 5.464 -20.562 3.188 C-19.942 2.931 -19.322 2.674 -18.683 2.409 C-12.385 0.012 -6.685 -0.173 0 0 Z " fill="#9F8880" transform="translate(393.5625,175.8125)"/>
<path d="M0 0 C4.796 5.355 5.295 8.549 5.211 15.594 C4.431 28.194 -0.067 44.283 -9.156 53.492 C-12.223 56 -15.342 57.539 -19 59 C-19.662 59.267 -20.325 59.535 -21.007 59.81 C-26.896 61.983 -32.13 62.438 -38.375 62.312 C-39.3 62.3 -40.224 62.288 -41.177 62.276 C-53.692 62.017 -65.001 60.384 -74.25 51.188 C-82.642 40.851 -84.904 28.936 -84.504 15.961 C-83.69 9.561 -81.209 5.362 -76.27 1.379 C-71.57 -1.476 -66.275 -2.617 -61 -4 C-59.681 -4.451 -59.681 -4.451 -58.336 -4.91 C-41.32 -10.306 -15.577 -9.203 0 0 Z " fill="#FCCFAB" transform="translate(503,351)"/>
<path d="M0 0 C0.703 0.267 1.405 0.534 2.129 0.809 C6.496 2.86 8.212 5.52 10.188 9.679 C11.609 13.743 11.498 17.677 11.375 21.938 C11.374 22.78 11.372 23.622 11.371 24.49 C11.217 35.604 8.68 48.078 0.902 56.469 C-2.933 59.556 -7.436 61.258 -12 63 C-13.072 63.413 -14.145 63.825 -15.25 64.25 C-27.796 67.672 -43.165 67.692 -55 62 C-64.924 55.591 -68.795 45.937 -72 35 C-72.392 33.762 -72.784 32.525 -73.188 31.25 C-74.609 25.084 -75.656 17.696 -73.008 11.785 C-65.202 1.708 -50.075 -0.745 -38.18 -2.594 C-25.782 -4 -11.766 -4.522 0 0 Z " fill="#FCCFAB" transform="translate(618,342)"/>
<path d="M0 0 C1.875 0.312 1.875 0.312 4 1 C7.035 5.553 6.382 10.01 6.375 15.375 C6.374 16.519 6.373 17.663 6.372 18.841 C6.143 36.008 3.394 53.03 -0.223 69.785 C-1.693 77.223 -2.476 84.796 -3.445 92.311 C-4.531 100.671 -5.753 108.994 -7.125 117.312 C-9.298 130.589 -11.036 143.762 -11.659 157.207 C-11.8 160.163 -12.006 163.039 -12.484 165.961 C-13.282 171.419 -13.332 176.927 -13.5 182.434 C-13.54 183.672 -13.58 184.91 -13.622 186.185 C-13.73 189.565 -13.834 192.945 -13.936 196.325 C-14 198.442 -14.066 200.56 -14.133 202.677 C-14.649 219.122 -15.061 235.564 -15.281 252.016 C-15.296 253.107 -15.296 253.107 -15.311 254.22 C-15.407 261.261 -15.495 268.302 -15.553 275.343 C-15.581 278.556 -15.62 281.768 -15.656 284.98 C-15.661 286.11 -15.667 287.24 -15.672 288.404 C-15.799 298.536 -16.318 308.849 -21 318 C-22.32 317.67 -23.64 317.34 -25 317 C-25.063 294.247 -24.907 271.501 -24.625 248.75 C-24.615 247.898 -24.604 247.046 -24.593 246.168 C-24.266 219.749 -23.773 193.369 -22 167 C-21.927 165.866 -21.853 164.732 -21.778 163.563 C-20.778 148.671 -18.719 133.94 -16.593 119.172 C-15.928 114.524 -15.296 109.871 -14.664 105.219 C-14.325 102.733 -13.986 100.247 -13.646 97.762 C-13.424 96.134 -13.204 94.506 -12.984 92.879 C-12.676 90.602 -12.364 88.326 -12.051 86.051 C-11.959 85.366 -11.868 84.681 -11.773 83.975 C-11.114 79.228 -11.114 79.228 -10 77 C-9.736 75.503 -9.515 73.999 -9.316 72.492 C-9.193 71.587 -9.07 70.682 -8.943 69.75 C-8.693 67.857 -8.443 65.964 -8.193 64.07 C-7.642 60.028 -7.082 56.059 -6.031 52.113 C-4.566 46.592 -3.78 40.957 -2.938 35.312 C-2.761 34.135 -2.585 32.957 -2.403 31.743 C-0.894 21.171 -0.229 10.669 0 0 Z " fill="#172234" transform="translate(768,692)"/>
<path d="M0 0 C6.883 1.784 13.293 5.266 19.625 8.438 C20.634 8.936 21.644 9.435 22.684 9.949 C29.329 13.39 34.92 17.622 40.625 22.438 C41.636 23.201 42.646 23.964 43.688 24.75 C52.2 32.538 57.985 41.884 63.668 51.824 C70.856 63.994 81.641 71.816 95.309 75.405 C107.097 77.605 118.477 77.699 130.438 77.438 C161.261 76.771 161.261 76.771 169.625 84.438 C169.625 85.757 169.625 87.077 169.625 88.438 C169.033 88.422 168.441 88.406 167.831 88.39 C157.287 88.149 147.034 88.091 136.625 89.938 C113.884 93.845 90.145 92.659 70.746 79.043 C61.354 71.934 56.619 62.207 51.293 51.961 C50.9 51.209 50.508 50.456 50.103 49.681 C49.346 48.225 48.598 46.764 47.858 45.299 C42.854 35.599 35.309 29.706 26.625 23.438 C25.36 22.523 25.36 22.523 24.07 21.59 C13.051 14.144 -1.873 5.183 -15.375 5.438 C-16.435 7.532 -16.435 7.532 -16.375 10.438 C-13.104 17.087 -7.904 20.395 -1.375 23.438 C-0.715 23.767 -0.055 24.097 0.625 24.438 C2.291 24.59 3.962 24.687 5.633 24.754 C6.619 24.796 7.605 24.838 8.621 24.881 C9.654 24.92 10.686 24.959 11.75 25 C12.79 25.043 13.831 25.086 14.902 25.131 C17.476 25.237 20.051 25.339 22.625 25.438 C19.54 28.817 17.384 29.384 12.746 29.711 C3.635 29.99 -3.72 30 -11.375 24.438 C-12.039 23.968 -12.703 23.499 -13.387 23.016 C-18.65 18.911 -21.892 14.551 -22.938 7.812 C-22.375 4.438 -22.375 4.438 -20.688 1.5 C-14.56 -2.315 -6.933 -1.16 0 0 Z " fill="#172234" transform="translate(471.375,199.5625)"/>
<path d="M0 0 C2 1.188 2 1.188 3 3 C2.688 5.688 2.688 5.688 2 8 C0.68 7.67 -0.64 7.34 -2 7 C-2 6.34 -2 5.68 -2 5 C-4.998 7.846 -7.385 10.802 -9.75 14.188 C-19.321 27.387 -31.231 39.11 -48 42 C-66.228 43.899 -83.126 39.912 -98 29 C-103.309 24.657 -108.154 19.846 -113 15 C-113.99 15.99 -114.98 16.98 -116 18 C-117.32 17.34 -118.64 16.68 -120 16 C-119.675 13.072 -119.404 10.674 -117.875 8.125 C-114.926 6.355 -112.391 6.809 -109 7 C-105.527 7.988 -105.527 7.988 -101.938 9.312 C-91.246 13.09 -80.353 15.526 -69 16 C-68.35 16.027 -67.701 16.054 -67.032 16.083 C-46.448 16.825 -26.04 12.856 -8.788 0.998 C-5.792 -0.674 -3.308 -0.519 0 0 Z " fill="#172234" transform="translate(588,460)"/>
<path d="M0 0 C3.783 2.102 7.054 4.58 10.416 7.277 C36.993 28.458 69.43 43.669 104 41 C108.832 40.186 113.38 38.598 118 37 C119.66 36.637 121.326 36.292 123 36 C123 37.32 123 38.64 123 40 C94.197 52.289 62.002 52.228 32.888 41.184 C19.319 35.623 6.191 28.531 -5 19 C-3.571 3.571 -3.571 3.571 0 0 Z " fill="#F78D57" transform="translate(440,539)"/>
<path d="M0 0 C1.511 0.002 1.511 0.002 3.052 0.005 C14.873 0.197 27.242 1.617 36 10.375 C35.668 16.467 35.668 16.467 33.746 19.079 C31.446 20.786 30.092 20.721 27.244 20.668 C25.796 20.653 25.796 20.653 24.319 20.638 C23.275 20.613 22.232 20.588 21.156 20.562 C20.077 20.551 18.997 20.54 17.885 20.528 C13.265 20.479 8.647 20.395 4.027 20.313 C0.654 20.259 -2.72 20.223 -6.094 20.188 C-7.121 20.163 -8.149 20.138 -9.207 20.112 C-15.411 20.05 -20.696 20.827 -26.622 22.689 C-29.985 23.659 -32.525 23.809 -36 23.375 C-37.938 22.25 -37.938 22.25 -39 20.375 C-39.688 17.625 -39.688 17.625 -39 14.375 C-30.11 2.902 -13.637 -0.023 0 0 Z " fill="#172234" transform="translate(464,305.625)"/>
<path d="M0 0 C0.99 0.495 0.99 0.495 2 1 C-5.929 13.442 -15.546 21.957 -29.875 26.375 C-45.361 29.44 -60.927 25.483 -74 17 C-84.866 9.623 -84.866 9.623 -89 5 C-89 4.34 -89 3.68 -89 3 C-83.853 3.644 -78.951 4.683 -73.938 6 C-50.565 12.103 -24.209 11.168 -2.223 0.855 C-1.122 0.432 -1.122 0.432 0 0 Z " fill="#FEFEFC" transform="translate(571,471)"/>
<path d="M0 0 C0.859 0.419 1.717 0.838 2.602 1.27 C4.648 2.377 6.335 3.38 8 5 C8.625 7.688 8.625 7.688 8 10 C6 12 6 12 2.443 12.195 C0.91 12.181 -0.623 12.157 -2.156 12.125 C-2.973 12.117 -3.79 12.11 -4.632 12.102 C-8.128 12.069 -11.624 12.014 -15.12 11.959 C-26.347 11.798 -36.475 11.908 -47.188 15.688 C-51.481 17.002 -54.612 17.404 -59 16 C-61.58 13.619 -62.738 11.93 -63.688 8.562 C-62.549 4.321 -59.602 2.321 -56 0 C-39.622 -7.926 -16.175 -8.656 0 0 Z " fill="#172234" transform="translate(610,307)"/>
<path d="M0 0 C4.748 3.135 8.872 6.599 12.035 11.344 C11.66 13.531 11.66 13.531 11.035 15.344 C8.035 15.344 8.035 15.344 6.648 14.031 C5.444 12.469 4.24 10.906 3.035 9.344 C2.797 10.249 2.797 10.249 2.555 11.172 C0.75 17.353 -1.144 20.115 -6.793 23.41 C-11.038 25.235 -15.461 25.075 -19.965 24.344 C-23.836 22.291 -26.243 19.657 -28.34 15.844 C-29.045 13.024 -29.563 10.222 -29.965 7.344 C-36.04 9.947 -39.766 12.838 -44.105 17.832 C-44.719 18.331 -45.333 18.83 -45.965 19.344 C-48.199 19.074 -48.199 19.074 -49.965 18.344 C-46.98 9.639 -40.769 5.56 -32.965 1.344 C-22.715 -3.387 -10.385 -5.435 0 0 Z " fill="#172234" transform="translate(484.96484375,356.65625)"/>
<path d="M0 0 C0.33 0.66 0.66 1.32 1 2 C-0.312 1.708 -1.625 1.417 -2.938 1.125 C-3.764 0.943 -4.59 0.761 -5.441 0.574 C-7.036 0.216 -8.628 -0.154 -10.215 -0.543 C-21.437 -3.242 -32.82 -3.186 -44.296 -3.185 C-46.797 -3.187 -49.298 -3.206 -51.799 -3.225 C-61.401 -3.259 -70.532 -2.741 -80 -1 C-80.803 -0.854 -81.605 -0.708 -82.432 -0.557 C-106.657 4.191 -127.319 14.661 -143 34 C-143.676 32.32 -143.676 32.32 -144 30 C-136.863 13.872 -121.186 3.364 -105.289 -2.844 C-101.422 -4.203 -97.544 -5.487 -93.625 -6.688 C-92.978 -6.89 -92.331 -7.093 -91.665 -7.302 C-62.303 -15.889 -27.711 -12.627 0 0 Z " fill="#F3F3F3" transform="translate(557,127)"/>
<path d="M0 0 C10.125 7.875 19.233 17.136 25.203 28.641 C25.203 29.961 25.203 31.281 25.203 32.641 C21.495 32.421 20.311 31.75 17.66 29.051 C16.768 27.943 15.887 26.827 15.016 25.703 C14.044 24.509 13.068 23.318 12.09 22.129 C11.604 21.537 11.119 20.945 10.619 20.334 C-3.61 3.309 -26.369 -10.941 -48.797 -13.359 C-52.423 -13.519 -56.043 -13.544 -59.672 -13.547 C-60.614 -13.559 -61.556 -13.571 -62.527 -13.584 C-71.423 -13.602 -78.609 -12.239 -86.609 -8.234 C-90.511 -6.286 -92.38 -5.359 -96.797 -5.359 C-96.797 -6.349 -96.797 -7.339 -96.797 -8.359 C-66.831 -31.897 -27.778 -21.015 0 0 Z " fill="#172234" transform="translate(539.796875,164.359375)"/>
<path d="M0 0 C8.371 5.172 8.371 5.172 9.992 10.145 C10.013 10.846 10.033 11.547 10.055 12.27 C7.669 11.694 5.388 11.047 3.055 10.27 C3.55 11.755 3.55 11.755 4.055 13.27 C3.395 13.27 2.735 13.27 2.055 13.27 C1.078 11.479 0.102 9.689 -0.875 7.898 C-1.859 6.103 -1.859 6.103 -3.945 5.27 C-3.822 6.425 -3.698 7.58 -3.57 8.77 C-3.554 13.463 -5.405 16.008 -8.242 19.605 C-11.438 22.728 -14.339 23.589 -18.758 23.707 C-23.269 23.601 -26.063 22.713 -29.539 19.836 C-32.566 16.464 -33.945 12.829 -33.945 8.27 C-35.22 9.348 -36.49 10.432 -37.758 11.52 C-38.466 12.123 -39.173 12.726 -39.902 13.348 C-42.008 15.2 -42.008 15.2 -43.52 17.504 C-44.225 18.378 -44.225 18.378 -44.945 19.27 C-45.935 19.27 -46.925 19.27 -47.945 19.27 C-47.729 13.981 -46.645 10.939 -43.031 7.043 C-31.366 -2.875 -14.272 -6.988 0 0 Z " fill="#172234" transform="translate(605.9453125,354.73046875)"/>
<path d="M0 0 C4.678 2.19 8.13 4.696 11 9 C9.84 8.954 8.68 8.907 7.484 8.859 C-9.954 8.367 -23.129 13.073 -36.625 24.5 C-54.221 41.233 -63.968 67.18 -64.992 91.184 C-64.996 92.083 -64.996 92.083 -65 93 C-65.33 93 -65.66 93 -66 93 C-67.662 67.105 -61.455 41.1 -44.012 21.258 C-43.348 20.513 -42.684 19.768 -42 19 C-41.205 17.919 -40.413 16.836 -39.625 15.75 C-33.135 8.951 -24.721 5.14 -16 2 C-15.188 1.646 -14.376 1.291 -13.539 0.926 C-9.036 -0.716 -4.71 -0.752 0 0 Z " fill="#FEFEFC" transform="translate(393,176)"/>
<path d="M0 0 C0.267 4.864 -0.626 8.488 -2.25 13.062 C-2.714 14.39 -3.176 15.718 -3.637 17.047 C-3.868 17.709 -4.099 18.371 -4.337 19.053 C-5.323 21.95 -6.19 24.88 -7.062 27.812 C-8.74 33.345 -10.742 38.68 -13 44 C-15.64 44.33 -18.28 44.66 -21 45 C-21 42.36 -21 39.72 -21 37 C-21.66 37 -22.32 37 -23 37 C-23.025 36.34 -23.05 35.68 -23.076 35 C-23.193 31.979 -23.315 28.958 -23.438 25.938 C-23.477 24.899 -23.516 23.861 -23.557 22.791 C-23.777 17.46 -24.112 12.263 -25 7 C-23.966 7.07 -23.966 7.07 -22.91 7.141 C-13.921 7.486 -6.958 0 0 0 Z " fill="#9F8880" transform="translate(671,299)"/>
<path d="M0 0 C0.33 0 0.66 0 1 0 C1.034 1.065 1.034 1.065 1.069 2.152 C1.287 8.903 1.507 15.654 1.73 22.404 C1.845 25.873 1.959 29.343 2.07 32.812 C2.198 36.816 2.332 40.82 2.465 44.824 C2.503 46.048 2.542 47.271 2.582 48.532 C2.812 55.336 3.21 62.101 3.763 68.887 C4.135 73.775 4.34 78.668 4.535 83.566 C4.578 84.607 4.621 85.648 4.665 86.72 C4.755 88.899 4.843 91.078 4.93 93.257 C5.062 96.559 5.2 99.86 5.338 103.162 C5.425 105.297 5.511 107.432 5.598 109.566 C5.638 110.536 5.679 111.505 5.721 112.503 C5.989 119.338 6.044 126.16 6 133 C4.68 133 3.36 133 2 133 C-0.846 102.16 -2.934 71.195 -3.793 40.234 C-3.847 38.296 -3.907 36.358 -3.971 34.421 C-4.057 31.735 -4.122 29.05 -4.18 26.363 C-4.208 25.571 -4.235 24.778 -4.264 23.962 C-4.328 19.561 -3.944 17.278 -1 14 C-0.422 10.501 -0.422 10.501 -0.312 6.75 C-0.247 5.487 -0.181 4.223 -0.113 2.922 C-0.057 1.476 -0.057 1.476 0 0 Z " fill="#2E3745" transform="translate(521,723)"/>
<path d="M0 0 C1.924 0.339 1.924 0.339 4 1 C6.077 5.42 6.387 9.891 6.598 14.703 C6.637 15.446 6.675 16.189 6.715 16.955 C6.84 19.386 6.952 21.818 7.062 24.25 C7.146 25.949 7.23 27.647 7.314 29.346 C7.928 42.036 8.363 54.73 8.658 67.431 C8.819 73.991 9.074 80.524 9.523 87.07 C10.032 94.553 10.117 102.002 10.062 109.5 C10.058 110.716 10.053 111.931 10.049 113.184 C10.037 116.122 10.021 119.061 10 122 C9.01 121.67 8.02 121.34 7 121 C4.594 95.066 3.083 69.143 1.94 43.125 C1.723 38.236 1.499 33.346 1.275 28.457 C0.843 18.972 0.418 9.486 0 0 Z " fill="#2E3745" transform="translate(548,700)"/>
<path d="M0 0 C4.273 0.269 7.518 1.404 11.34 3.184 C12.021 3.491 12.702 3.799 13.403 4.116 C18.623 6.529 23.693 9.197 28.715 11.996 C29.39 12.372 30.066 12.749 30.761 13.136 C33.825 14.891 36.598 16.539 38.902 19.246 C37.912 19.576 36.922 19.906 35.902 20.246 C35.572 20.906 35.242 21.566 34.902 22.246 C31.401 22.194 27.902 22.099 24.402 21.996 C23.42 21.982 22.438 21.968 21.426 21.953 C11.552 21.624 4.8 18.271 -2.098 11.246 C-4.38 8.322 -5.184 7.197 -4.848 3.496 C-3.724 0.125 -3.713 0.295 0 0 Z " fill="#9F8880" transform="translate(459.09765625,203.75390625)"/>
<path d="M0 0 C1.32 0 2.64 0 4 0 C4 28.05 4 56.1 4 85 C2.68 85 1.36 85 0 85 C0 56.95 0 28.9 0 0 Z " fill="#172234" transform="translate(484,705)"/>
<path d="M0 0 C-0.33 1.98 -0.66 3.96 -1 6 C-22.528 13.165 -47.311 11.777 -69 6 C-68.67 4.35 -68.34 2.7 -68 1 C-66.459 1.307 -66.459 1.307 -64.887 1.621 C-40.994 6.308 -22.714 0 0 0 Z " fill="#172234" transform="translate(560,471)"/>
<path d="M0 0 C0 3.985 -1.351 4.766 -4 7.688 C-17.978 24.513 -24.569 47.822 -25.605 69.381 C-25.898 74.795 -25.898 74.795 -27 77 C-27.226 78.704 -27.409 80.413 -27.562 82.125 C-27.646 83.035 -27.73 83.945 -27.816 84.883 C-27.877 85.581 -27.938 86.28 -28 87 C-28.33 87 -28.66 87 -29 87 C-29.851 52.473 -29.851 52.473 -25 39 C-24.748 38.287 -24.496 37.574 -24.236 36.84 C-19.159 22.837 -12.267 9.02 0 0 Z " fill="#8A776F" transform="translate(352,192)"/>
<path d="M0 0 C6.36 1.897 9.167 6.692 12.645 12 C13.793 14.581 13.921 16.263 13.562 19.062 C12.32 20.879 12.32 20.879 10.688 22.625 C6.658 27.576 6.162 32.857 5.562 39.062 C4.572 39.062 3.582 39.062 2.562 39.062 C0.689 35.315 1.015 31.142 1.562 27.062 C2.678 24.582 3.948 22.42 5.469 20.168 C6.83 17.548 6.954 15.981 6.562 13.062 C5.409 11.025 5.409 11.025 3.75 9.312 C2.967 8.423 2.967 8.423 2.168 7.516 C0.514 5.823 0.514 5.823 -2.438 5.062 C-2.891 5.887 -3.345 6.712 -3.812 7.562 C-4.349 8.387 -4.885 9.212 -5.438 10.062 C-6.098 10.062 -6.757 10.062 -7.438 10.062 C-7.757 6.543 -7.809 4.642 -5.875 1.625 C-3.438 0.062 -3.438 0.062 0 0 Z " fill="#172234" transform="translate(365.4375,379.9375)"/>
<path d="M0 0 C1.114 0.34 1.114 0.34 2.25 0.688 C2.25 1.678 2.25 2.668 2.25 3.688 C1.508 4.121 0.765 4.554 0 5 C-3.469 7.129 -4.878 9.083 -6.75 12.688 C-7.37 17.026 -7.311 18.898 -4.75 22.5 C-1.991 26.898 -1.782 30.62 -2.75 35.688 C-4.146 38.384 -5.414 39.623 -7.75 41.688 C-8.74 41.688 -9.73 41.688 -10.75 41.688 C-8.875 36.938 -8.875 36.938 -7.75 34.688 C-7.14 30.418 -7.859 28.243 -10.25 24.812 C-12.422 21.526 -13.575 18.922 -13.309 14.84 C-11.761 8.878 -7.123 -0.809 0 0 Z " fill="#172234" transform="translate(659.75,365.3125)"/>
<path d="M0 0 C0.075 0.629 0.15 1.258 0.227 1.906 C1.267 8.681 3.464 12.894 8 18 C-1.023 18.814 -7.792 16.654 -16 13 C-13.546 7.288 -8.571 3.258 -3.062 0.562 C-1 0 -1 0 0 0 Z " fill="#FEFEFC" transform="translate(456,363)"/>
<path d="M0 0 C0.99 0 1.98 0 3 0 C3.291 0.553 3.583 1.107 3.883 1.677 C12.785 18.491 20.414 30.131 37 40 C33.488 41.171 32.397 40.55 29.165 39.008 C14.878 31.718 5.758 19.971 0 5 C-0.188 2.062 -0.188 2.062 0 0 Z " fill="#F3F3F3" transform="translate(549,234)"/>
<path d="M0 0 C0.99 0.33 1.98 0.66 3 1 C3.126 7.419 3.126 7.419 2.502 10.298 C1.89 13.593 1.888 16.699 1.902 20.051 C1.904 20.71 1.905 21.368 1.907 22.047 C1.912 24.136 1.925 26.224 1.938 28.312 C1.943 29.735 1.947 31.158 1.951 32.58 C1.962 36.053 1.979 39.527 2 43 C-1 42 -1 42 -2.664 39.105 C-4.552 34.262 -4.449 29.449 -4.375 24.312 C-4.368 23.341 -4.362 22.369 -4.355 21.368 C-4.032 4.032 -4.032 4.032 0 0 Z " fill="#172234" transform="translate(345,281)"/>
<path d="M0 0 C0.33 0 0.66 0 1 0 C1.288 6.758 1.573 13.517 1.854 20.276 C1.951 22.571 2.048 24.865 2.146 27.16 C2.287 30.476 2.425 33.793 2.562 37.109 C2.606 38.119 2.65 39.129 2.695 40.17 C2.979 47.117 3.048 54.048 3 61 C1.68 61 0.36 61 -1 61 C-1.34 57.188 -1.671 53.375 -2 49.562 C-2.143 47.959 -2.143 47.959 -2.289 46.322 C-2.955 38.55 -3.476 30.835 -2.562 23.062 C-2.441 21.966 -2.441 21.966 -2.316 20.848 C-2 19 -2 19 -1 17 C-0.767 14.121 -0.58 11.259 -0.438 8.375 C-0.394 7.573 -0.351 6.771 -0.307 5.945 C-0.2 3.964 -0.1 1.982 0 0 Z " fill="#2E3745" transform="translate(524,795)"/>
<path d="M0 0 C0.66 0 1.32 0 2 0 C2.161 1.219 2.322 2.438 2.487 3.693 C3.097 8.294 3.719 12.894 4.344 17.493 C4.611 19.468 4.874 21.445 5.135 23.421 C6.729 35.51 8.701 47.253 12 59 C11.01 59.495 11.01 59.495 10 60 C6.139 51.682 3.043 44.166 2 35 C1.913 34.28 1.825 33.561 1.735 32.819 C0.42 21.842 -0.302 11.057 0 0 Z " fill="#FEFEFC" transform="translate(531,377)"/>
<path d="M0 0 C1.773 0.145 1.773 0.145 4 1 C5.852 3.512 5.852 3.512 7.625 6.688 C8.215 7.723 8.806 8.758 9.414 9.824 C12.361 15.725 13.303 20.619 13.188 27.188 C13.187 27.898 13.186 28.609 13.186 29.342 C13.159 32.486 13.001 34.998 12 38 C11.01 38 10.02 38 9 38 C8.986 36.984 8.972 35.968 8.957 34.922 C8.643 24.106 6.19 16.16 1.188 6.5 C0 4 0 4 0 0 Z " fill="#172234" transform="translate(614,218)"/>
<path d="M0 0 C1.32 0.33 2.64 0.66 4 1 C4.511 5.103 5.007 9.207 5.5 13.312 C5.643 14.46 5.786 15.608 5.934 16.791 C6.78 23.901 7.196 30.841 7 38 C5.515 38.495 5.515 38.495 4 39 C0.75 26.231 -0.412 13.15 0 0 Z " fill="#2E3745" transform="translate(526,373)"/>
<path d="M0 0 C8.183 0.863 12.971 4.581 18.633 10.367 C20.389 12.54 20.962 14.329 21.047 17.117 C16.954 16.598 14.951 15.516 11.984 12.68 C7.178 8.121 3.67 6.881 -2.953 6.117 C-3.578 4.242 -3.578 4.242 -3.953 2.117 C-1.953 0.117 -1.953 0.117 0 0 Z " fill="#172234" transform="translate(511.953125,429.8828125)"/>
<path d="M0 0 C0.329 1.013 0.329 1.013 0.664 2.047 C2.801 8.057 4.318 11.03 10 14 C10 14.33 10 14.66 10 15 C2.258 15.394 -4.521 13.942 -12 12 C-10.108 8.651 -8.169 5.896 -5.438 3.188 C-4.838 2.583 -4.239 1.978 -3.621 1.355 C-2 0 -2 0 0 0 Z " fill="#FEFEFC" transform="translate(572,363)"/>
<path d="M0 0 C0.33 0 0.66 0 1 0 C1.944 8.187 2.156 16.3 2.13 24.537 C2.125 26.591 2.13 28.644 2.137 30.697 C2.135 31.995 2.134 33.292 2.133 34.629 C2.132 35.805 2.131 36.982 2.129 38.194 C2 41 2 41 1 43 C0.775 44.537 0.592 46.08 0.438 47.625 C0.354 48.442 0.27 49.26 0.184 50.102 C0.123 50.728 0.062 51.355 0 52 C-0.33 52 -0.66 52 -1 52 C-2.009 44.011 -2.151 36.108 -2.125 28.062 C-2.129 26.845 -2.133 25.627 -2.137 24.373 C-2.135 23.21 -2.134 22.046 -2.133 20.848 C-2.132 19.796 -2.131 18.744 -2.129 17.66 C-2 15 -2 15 -1 12 C-0.777 9.941 -0.593 7.878 -0.438 5.812 C-0.354 4.726 -0.27 3.639 -0.184 2.52 C-0.123 1.688 -0.062 0.857 0 0 Z " fill="#172234" transform="translate(522,771)"/>
<path d="M0 0 C-0.33 1.98 -0.66 3.96 -1 6 C-16.706 11.228 -32.665 10.403 -49 10 C-49 9.67 -49 9.34 -49 9 C-39.76 8.67 -30.52 8.34 -21 8 C-21.66 7.01 -22.32 6.02 -23 5 C-21.903 4.807 -20.806 4.613 -19.676 4.414 C-18.221 4.151 -16.767 3.888 -15.312 3.625 C-14.231 3.436 -14.231 3.436 -13.127 3.242 C-8.806 2.453 -4.238 0 0 0 Z " fill="#2E3745" transform="translate(560,471)"/>
<path d="M0 0 C0.33 0 0.66 0 1 0 C1.33 10.56 1.66 21.12 2 32 C1.67 32 1.34 32 1 32 C1 53.45 1 74.9 1 97 C0.01 97.495 0.01 97.495 -1 98 C-1.024 89.061 -1.041 80.123 -1.052 71.184 C-1.057 67.031 -1.064 62.877 -1.075 58.723 C-1.128 39.122 -0.994 19.583 0 0 Z " fill="#2E3745" transform="translate(745,875)"/>
<path d="M0 0 C0.66 0.33 1.32 0.66 2 1 C1.505 1.433 1.01 1.866 0.5 2.312 C-1.332 3.997 -1.332 3.997 -1 7 C-3.655 8.357 -6.324 9.684 -9 11 C-9.866 11.433 -10.732 11.866 -11.625 12.312 C-14.686 13.199 -16.93 12.714 -20 12 C-20.33 11.01 -20.66 10.02 -21 9 C-20.154 8.769 -19.309 8.539 -18.438 8.301 C-10.532 6.03 -10.532 6.03 -3.312 2.188 C-2.219 1.466 -1.126 0.744 0 0 Z " fill="#21293E" transform="translate(558,488)"/>
<path d="M0 0 C2.395 0.743 3.708 1.471 4.934 3.691 C5.672 5.441 6.34 7.219 7 9 C2.532 12.606 -1.321 15.58 -7 17 C-6.578 16.443 -6.157 15.886 -5.723 15.312 C-1.963 10.076 -0.235 6.459 0 0 Z " fill="#F3F3F3" transform="translate(602,360)"/>
<path d="M0 0 C5.94 0 11.88 0 18 0 C18.33 1.32 18.66 2.64 19 4 C15.708 4.058 12.417 4.094 9.125 4.125 C7.719 4.15 7.719 4.15 6.285 4.176 C5.389 4.182 4.493 4.189 3.57 4.195 C2.743 4.206 1.915 4.216 1.063 4.227 C-1 4 -1 4 -3 2 C-2.01 2 -1.02 2 0 2 C0 1.34 0 0.68 0 0 Z " fill="#172234" transform="translate(521,498)"/>
<path d="M0 0 C0.33 0 0.66 0 1 0 C1.194 2.479 1.38 4.958 1.562 7.438 C1.619 8.145 1.675 8.852 1.732 9.58 C1.862 11.384 1.935 13.192 2 15 C1.67 15.33 1.34 15.66 1 16 C0.911 19.03 0.885 22.037 0.902 25.066 C0.904 25.975 0.905 26.884 0.907 27.82 C0.912 30.734 0.925 33.648 0.938 36.562 C0.943 38.533 0.947 40.504 0.951 42.475 C0.962 47.316 0.979 52.158 1 57 C0.34 56.67 -0.32 56.34 -1 56 C-1.025 50.275 -1.043 44.55 -1.055 38.825 C-1.06 36.883 -1.067 34.942 -1.075 33 C-1.124 21.948 -1.04 11.013 0 0 Z " fill="#172234" transform="translate(137,829)"/>
<path d="M0 0 C0.896 0.003 1.792 0.006 2.715 0.01 C4.121 0.022 4.121 0.022 5.555 0.035 C6.5 0.04 7.444 0.044 8.418 0.049 C10.755 0.061 13.092 0.077 15.43 0.098 C15.76 1.088 16.09 2.078 16.43 3.098 C7.52 3.098 -1.39 3.098 -10.57 3.098 C-4.32 -0.027 -4.32 -0.027 0 0 Z " fill="#172234" transform="translate(524.5703125,476.90234375)"/>
<path d="M0 0 C6.27 0 12.54 0 19 0 C14.286 4.714 10.264 4.183 4 4.188 C2.77 4.206 2.77 4.206 1.516 4.225 C0.727 4.227 -0.062 4.228 -0.875 4.23 C-1.594 4.235 -2.314 4.239 -3.055 4.243 C-5 4 -5 4 -8 2 C-4.04 2 -0.08 2 4 2 C2.68 1.34 1.36 0.68 0 0 Z " fill="#2E3745" transform="translate(475,225)"/>
<path d="M0 0 C0.66 0 1.32 0 2 0 C2.797 7.36 3.129 14.598 3 22 C2.01 21.67 1.02 21.34 0 21 C-0.196 17.688 -0.38 14.375 -0.562 11.062 C-0.619 10.117 -0.675 9.171 -0.732 8.197 C-0.781 7.298 -0.829 6.399 -0.879 5.473 C-0.926 4.64 -0.973 3.807 -1.022 2.949 C-1 1 -1 1 0 0 Z " fill="#172234" transform="translate(555,800)"/>
<path d="M0 0 C0 2 0 4 0 6 C-3.96 7.32 -7.92 8.64 -12 10 C-12 7 -12 7 -10.5 5 C-7.185 2.348 -4.022 1.341 0 0 Z " fill="#172234" transform="translate(571,466)"/>
<path d="M0 0 C0 1.32 0 2.64 0 4 C-1.622 4.838 -3.248 5.67 -4.875 6.5 C-6.232 7.196 -6.232 7.196 -7.617 7.906 C-10 9 -10 9 -12 9 C-11.875 6.75 -11.875 6.75 -11 4 C-7.35 0.93 -4.805 -0.565 0 0 Z " fill="#2E3745" transform="translate(555,430)"/>
<path d="M0 0 C0.99 0 1.98 0 3 0 C5.074 8.038 5.214 15.73 5 24 C4.67 24 4.34 24 4 24 C3.67 18.72 3.34 13.44 3 8 C2.34 8 1.68 8 1 8 C1 10.64 1 13.28 1 16 C0.67 16 0.34 16 0 16 C-0.194 13.709 -0.38 11.417 -0.562 9.125 C-0.719 7.211 -0.719 7.211 -0.879 5.258 C-1 2 -1 2 0 0 Z " fill="#F5E0C6" transform="translate(530,369)"/>
<path d="M0 0 C0.33 0 0.66 0 1 0 C1.33 10.56 1.66 21.12 2 32 C1.67 32 1.34 32 1 32 C0.67 36.95 0.34 41.9 0 47 C-0.33 47 -0.66 47 -1 47 C-1.15 31.307 -0.701 15.677 0 0 Z " fill="#686D77" transform="translate(745,875)"/>
<path d="M0 0 C2.43 3.646 2.263 6.356 2.188 10.562 C2.187 11.248 2.186 11.933 2.186 12.639 C2.141 17.719 2.141 17.719 1 20 C0.774 21.704 0.591 23.413 0.438 25.125 C0.312 26.49 0.312 26.49 0.184 27.883 C0.123 28.581 0.062 29.28 0 30 C-0.33 30 -0.66 30 -1 30 C-1.029 26.313 -1.047 22.625 -1.062 18.938 C-1.071 17.899 -1.079 16.861 -1.088 15.791 C-1.105 10.413 -0.954 5.297 0 0 Z " fill="#8A776F" transform="translate(324,249)"/>
<path d="M0 0 C0.33 0 0.66 0 1 0 C1.229 15.675 0.555 31.338 0 47 C-0.33 47 -0.66 47 -1 47 C-1.167 42.195 -1.328 37.389 -1.482 32.583 C-1.536 30.948 -1.591 29.313 -1.648 27.677 C-1.73 25.329 -1.805 22.981 -1.879 20.633 C-1.906 19.899 -1.933 19.166 -1.961 18.41 C-2.114 13.228 -2.114 13.228 -1 11 C-0.772 9.129 -0.59 7.253 -0.438 5.375 C-0.354 4.372 -0.27 3.369 -0.184 2.336 C-0.123 1.565 -0.062 0.794 0 0 Z " fill="#686D77" transform="translate(753,879)"/>
<path d="M0 0 C0 1.32 0 2.64 0 4 C-1.623 4.671 -3.249 5.337 -4.875 6 C-6.232 6.557 -6.232 6.557 -7.617 7.125 C-10 8 -10 8 -12 8 C-12.33 6.35 -12.66 4.7 -13 3 C-9.973 2.268 -9.973 2.268 -6.945 1.535 C-1.365 0 -1.365 0 0 0 Z " fill="#DF8453" transform="translate(563,575)"/>
<path d="M0 0 C8.4 0.988 8.4 0.988 12 3 C12.812 5.125 12.812 5.125 13 7 C4.6 6.012 4.6 6.012 1 4 C0.188 1.875 0.188 1.875 0 0 Z " fill="#172234" transform="translate(480,469)"/>
<path d="M0 0 C1.937 -0.081 3.875 -0.139 5.812 -0.188 C6.891 -0.222 7.97 -0.257 9.082 -0.293 C12 0 12 0 13.871 1.32 C15.585 3.871 15.254 6.01 15 9 C14.67 9.66 14.34 10.32 14 11 C13.34 11 12.68 11 12 11 C11.67 7.7 11.34 4.4 11 1 C10.01 1 9.02 1 8 1 C7.67 1.66 7.34 2.32 7 3 C7 2.34 7 1.68 7 1 C4.69 1 2.38 1 0 1 C0 0.67 0 0.34 0 0 Z M6 3 C6.33 3.66 6.66 4.32 7 5 C6.01 4.67 5.02 4.34 4 4 C4.66 3.67 5.32 3.34 6 3 Z " fill="#E9C8A3" transform="translate(522,368)"/>
<path d="M0 0 C5.75 0.75 5.75 0.75 8 3 C11.122 3.465 11.122 3.465 14.625 3.625 C15.814 3.7 17.002 3.775 18.227 3.852 C19.142 3.901 20.057 3.95 21 4 C21 4.33 21 4.66 21 5 C18.167 5.027 15.333 5.047 12.5 5.062 C11.313 5.075 11.313 5.075 10.102 5.088 C4.972 5.109 0.077 4.739 -5 4 C-5 3.67 -5 3.34 -5 3 C-3.35 3 -1.7 3 0 3 C0 2.01 0 1.02 0 0 Z " fill="#796662" transform="translate(577,273)"/>
<path d="M0 0 C0.66 0.33 1.32 0.66 2 1 C1.505 1.433 1.01 1.866 0.5 2.312 C-1.332 3.997 -1.332 3.997 -1 7 C-3.312 8.75 -3.312 8.75 -6 10 C-6.99 9.67 -7.98 9.34 -9 9 C-9 8.34 -9 7.68 -9 7 C-9.66 6.67 -10.32 6.34 -11 6 C-10.29 5.651 -9.579 5.301 -8.848 4.941 C-7.929 4.486 -7.009 4.031 -6.062 3.562 C-4.688 2.884 -4.688 2.884 -3.285 2.191 C-1.095 1.195 -1.095 1.195 0 0 Z " fill="#2E3745" transform="translate(558,488)"/>
<path d="M0 0 C0.66 0.33 1.32 0.66 2 1 C2.747 3.987 3.236 6.002 3 9 C0.812 12.062 0.812 12.062 -2 14 C-4.312 13.812 -4.312 13.812 -6 13 C-5.072 12.01 -5.072 12.01 -4.125 11 C-1.501 7.296 -0.899 4.421 0 0 Z " fill="#F3F3F3" transform="translate(487,365)"/>
<path d="M0 0 C-0.449 2.127 -0.91 4.252 -1.375 6.375 C-1.63 7.558 -1.885 8.742 -2.148 9.961 C-3 13 -3 13 -5 15 C-5.196 13.397 -5.381 11.792 -5.562 10.188 C-5.719 8.848 -5.719 8.848 -5.879 7.48 C-6 5 -6 5 -5 2 C-2 0 -2 0 0 0 Z " fill="#93817A" transform="translate(334,223)"/>
<path d="M0 0 C0.33 0 0.66 0 1 0 C1 6.6 1 13.2 1 20 C0.67 20 0.34 20 0 20 C-0.33 22.31 -0.66 24.62 -1 27 C-1.33 27 -1.66 27 -2 27 C-2.209 17.758 -2.15 9.06 0 0 Z " fill="#2E3745" transform="translate(748,848)"/>
<path d="M0 0 C1.875 0.312 1.875 0.312 4 1 C6.152 4.228 6.201 5.284 6 9 C4.125 8.688 4.125 8.688 2 8 C-0.152 4.772 -0.201 3.716 0 0 Z " fill="#172234" transform="translate(377,407)"/>
<path d="M0 0 C1.289 0.003 2.578 0.006 3.906 0.01 C5.253 0.018 6.599 0.027 7.945 0.035 C9.315 0.04 10.685 0.045 12.055 0.049 C15.393 0.061 18.732 0.077 22.07 0.098 C22.07 0.428 22.07 0.758 22.07 1.098 C20.859 1.135 20.859 1.135 19.624 1.174 C15.981 1.289 12.338 1.412 8.695 1.535 C6.789 1.594 6.789 1.594 4.844 1.654 C3.632 1.696 2.42 1.738 1.172 1.781 C-0.509 1.836 -0.509 1.836 -2.224 1.892 C-4.897 1.924 -4.897 1.924 -6.93 3.098 C-8.938 2.817 -10.94 2.487 -12.93 2.098 C-12.93 1.768 -12.93 1.438 -12.93 1.098 C-8.561 0.257 -4.446 -0.02 0 0 Z " fill="#4D3C43" transform="translate(586.9296875,332.90234375)"/>
<path d="M0 0 C2 3 2 3 1.391 6.539 C1.024 7.905 0.643 9.267 0.25 10.625 C0.067 11.319 -0.116 12.012 -0.305 12.727 C-0.798 14.506 -1.392 16.256 -2 18 C-2.66 18.33 -3.32 18.66 -4 19 C-3.38 12.425 -1.851 6.333 0 0 Z " fill="#38404F" transform="translate(152,737)"/>
<path d="M0 0 C0.33 0 0.66 0 1 0 C1.027 1.458 1.046 2.917 1.062 4.375 C1.074 5.187 1.086 5.999 1.098 6.836 C1 9 1 9 0 11 C-0.99 11 -1.98 11 -3 11 C-2.886 9.541 -2.758 8.083 -2.625 6.625 C-2.555 5.813 -2.486 5.001 -2.414 4.164 C-2 2 -2 2 0 0 Z " fill="#CFB499" transform="translate(641,358)"/>
<path d="M0 0 C7.75 -0.125 7.75 -0.125 10 1 C10 2.98 10 4.96 10 7 C8.331 6.025 6.665 5.045 5 4.062 C4.072 3.517 3.144 2.972 2.188 2.41 C1.466 1.945 0.744 1.479 0 1 C0 0.67 0 0.34 0 0 Z " fill="#B29787" transform="translate(393,176)"/>
<path d="M0 0 C0.33 0 0.66 0 1 0 C1.194 2.479 1.38 4.958 1.562 7.438 C1.619 8.145 1.675 8.852 1.732 9.58 C1.862 11.384 1.935 13.192 2 15 C1.67 15.33 1.34 15.66 1 16 C0.765 18.35 0.586 20.706 0.438 23.062 C0.354 24.353 0.27 25.643 0.184 26.973 C0.123 27.972 0.062 28.971 0 30 C-0.33 30 -0.66 30 -1 30 C-1.118 19.936 -0.878 10.034 0 0 Z " fill="#717681" transform="translate(137,829)"/>
<path d="M0 0 C2.97 0.33 5.94 0.66 9 1 C8.01 1.495 8.01 1.495 7 2 C7 2.66 7 3.32 7 4 C4.085 4.81 2.539 5.218 -0.312 4.062 C-0.869 3.712 -1.426 3.361 -2 3 C-1.34 3 -0.68 3 0 3 C0 2.01 0 1.02 0 0 Z " fill="#21293E" transform="translate(514,496)"/>
<path d="M0 0 C0.33 0 0.66 0 1 0 C1 3.63 1 7.26 1 11 C0.01 11.33 -0.98 11.66 -2 12 C-2.33 9.69 -2.66 7.38 -3 5 C-2.34 5 -1.68 5 -1 5 C-0.67 3.35 -0.34 1.7 0 0 Z " fill="#2E3745" transform="translate(532,400)"/>
<path d="M0 0 C1.32 0.33 2.64 0.66 4 1 C4 2.98 4 4.96 4 7 C3.34 7 2.68 7 2 7 C1.67 8.98 1.34 10.96 1 13 C0.67 13 0.34 13 0 13 C0 8.71 0 4.42 0 0 Z " fill="#2E3745" transform="translate(526,373)"/>
<path d="M0 0 C0.33 0.66 0.66 1.32 1 2 C-0.072 2.248 -1.145 2.495 -2.25 2.75 C-6.046 4.015 -7.396 5.107 -10 8 C-10.66 8 -11.32 8 -12 8 C-9.82 2.451 -6.058 -0.692 0 0 Z " fill="#E9C8A3" transform="translate(661,351)"/>
<path d="M0 0 C-0.33 1.98 -0.66 3.96 -1 6 C-2.65 6 -4.3 6 -6 6 C-6.33 4.68 -6.66 3.36 -7 2 C-2.25 0 -2.25 0 0 0 Z " fill="#2E3745" transform="translate(560,471)"/>
<path d="M0 0 C0 3.521 -0.583 4.1 -2.812 6.688 C-3.596 7.621 -3.596 7.621 -4.395 8.574 C-6 10 -6 10 -9 10 C-7.618 6.79 -6.076 4.951 -3.375 2.75 C-2.743 2.229 -2.112 1.708 -1.461 1.172 C-0.738 0.592 -0.738 0.592 0 0 Z " fill="#8A776F" transform="translate(352,192)"/>
<path d="M0 0 C2 2 2 2 2.195 4.164 C2.161 5.382 2.161 5.382 2.125 6.625 C2.107 7.442 2.089 8.26 2.07 9.102 C2.047 9.728 2.024 10.355 2 11 C1.01 10.67 0.02 10.34 -1 10 C-1.125 3.375 -1.125 3.375 0 0 Z " fill="#8A776F" transform="translate(327,231)"/>
<path d="M0 0 C-1.528 3.438 -3.502 6.19 -6 9 C-6.66 9 -7.32 9 -8 9 C-6.69 5.07 -4.75 0 0 0 Z " fill="#E9C8A3" transform="translate(428,353)"/>
<path d="M0 0 C1.32 0.33 2.64 0.66 4 1 C3.25 2.938 3.25 2.938 2 5 C-0.125 5.75 -0.125 5.75 -2 6 C-2 3 -2 3 0 0 Z " fill="#172234" transform="translate(561,470)"/>
<path d="M0 0 C0.66 0.33 1.32 0.66 2 1 C1.34 4.3 0.68 7.6 0 11 C-0.33 11 -0.66 11 -1 11 C-1.027 9.354 -1.046 7.708 -1.062 6.062 C-1.074 5.146 -1.086 4.229 -1.098 3.285 C-1 1 -1 1 0 0 Z " fill="#172234" transform="translate(528,379)"/>
<path d="M0 0 C-1.306 2.913 -2.707 4.803 -5 7 C-5.66 7.99 -6.32 8.98 -7 10 C-7.312 7.812 -7.312 7.812 -7 5 C-2.778 0 -2.778 0 0 0 Z " fill="#172234" transform="translate(554,308)"/>
<path d="M0 0 C1.149 0.954 2.294 1.914 3.438 2.875 C4.076 3.409 4.714 3.942 5.371 4.492 C7 6 7 6 8 8 C4.215 7.459 2.408 5.924 0 3 C0 2.01 0 1.02 0 0 Z " fill="#21293E" transform="translate(214,702)"/>
<path d="M0 0 C0.33 0 0.66 0 1 0 C2.125 6.625 2.125 6.625 1 10 C0.34 10 -0.32 10 -1 10 C-1.125 2.25 -1.125 2.25 0 0 Z " fill="#172234" transform="translate(530,395)"/>
<path d="M0 0 C0 1.32 0 2.64 0 4 C-2.31 3.67 -4.62 3.34 -7 3 C-3.375 0 -3.375 0 0 0 Z " fill="#DF8453" transform="translate(563,575)"/>
<path d="M0 0 C1.32 0.33 2.64 0.66 4 1 C4.33 2.98 4.66 4.96 5 7 C4.01 6.34 3.02 5.68 2 5 C2 4.34 2 3.68 2 3 C1.34 3 0.68 3 0 3 C0 2.01 0 1.02 0 0 Z " fill="#38404F" transform="translate(548,700)"/>
<path d="M0 0 C0.99 0.33 1.98 0.66 3 1 C0.69 3.31 -1.62 5.62 -4 8 C-4 4.092 -2.494 2.884 0 0 Z " fill="#21293E" transform="translate(564,361)"/>
<path d="M0 0 C0 2 0 4 0 6 C-0.99 6.33 -1.98 6.66 -3 7 C-3 6.01 -3 5.02 -3 4 C-3.66 3.34 -4.32 2.68 -5 2 C-3.35 1.34 -1.7 0.68 0 0 Z " fill="#2E3745" transform="translate(571,466)"/>
<path d="M0 0 C1.65 0.33 3.3 0.66 5 1 C3.188 2.562 3.188 2.562 1 4 C0.01 3.67 -0.98 3.34 -2 3 C-1.34 2.01 -0.68 1.02 0 0 Z " fill="#21293E" transform="translate(550,432)"/>
<path d="M0 0 C0 0.33 0 0.66 0 1 C-5.16 2.513 -8.66 3.335 -14 2 C-14 1.67 -14 1.34 -14 1 C-9.237 0.047 -4.833 -0.083 0 0 Z " fill="#685656" transform="translate(588,333)"/>
<path d="M0 0 C0.99 0.33 1.98 0.66 3 1 C2.34 3.31 1.68 5.62 1 8 C0.67 8 0.34 8 0 8 C-0.381 5.674 -0.713 3.339 -1 1 C-0.67 0.67 -0.34 0.34 0 0 Z " fill="#B29787" transform="translate(329,230)"/>
<path d="M0 0 C2.64 0 5.28 0 8 0 C6.812 1.562 6.812 1.562 5 3 C2.312 2.688 2.312 2.688 0 2 C0 1.34 0 0.68 0 0 Z " fill="#172234" transform="translate(486,225)"/>
<path d="M0 0 C1.32 0.66 2.64 1.32 4 2 C3.01 2.33 2.02 2.66 1 3 C0.67 3.66 0.34 4.32 0 5 C0 4.34 0 3.68 0 3 C-1.65 3 -3.3 3 -5 3 C-4.361 2.691 -3.721 2.381 -3.062 2.062 C-1.064 1.165 -1.064 1.165 0 0 Z " fill="#B29787" transform="translate(494,221)"/>
</svg>